<?xml version="1.0" encoding="utf-8"?>
<!-- Generator: Adobe Illustrator 17.0.2, SVG Export Plug-In . SVG Version: 6.00 Build 0)  -->
<!DOCTYPE svg PUBLIC "-//W3C//DTD SVG 1.1//EN" "http://www.w3.org/Graphics/SVG/1.1/DTD/svg11.dtd">
<svg version="1.1" id="Layer_1" xmlns="http://www.w3.org/2000/svg" xmlns:xlink="http://www.w3.org/1999/xlink" x="0px" y="0px"
	 width="201.8px" height="267.4px" viewBox="-16.59 -0.502 201.8 267.4" enable-background="new -16.59 -0.502 201.8 267.4"
	 xml:space="preserve">
<g>
	<g>
		<path fill="#333333" stroke="#333333" stroke-width="3" stroke-linejoin="round" stroke-miterlimit="10" d="M120.988,246.944
			c0,0-11.829,16.453-21.183,16.453c-4.996,0-9.986-4.046-13.525-16.451l0.613,0.336c0,0,8.638,3.079,25.909-6.836L120.988,246.944z
			"/>
		<path fill="#333333" stroke="#333333" stroke-width="3" stroke-linejoin="round" stroke-miterlimit="10" d="M85.717,247.282
			l0.563-0.336c-3.539,12.405-8.523,16.451-13.513,16.451c-9.336,0-22.839-16.453-22.839-16.453l10.998-7.528
			C78.204,249.331,85.717,247.282,85.717,247.282z"/>
	</g>
	<path fill="none" stroke="#333333" stroke-width="3" stroke-linecap="round" stroke-linejoin="round" stroke-miterlimit="10" d="
		M55.75,241.434c0,0-13.263,8.602-16.238,20.201"/>
	<path fill="none" stroke="#333333" stroke-width="3" stroke-linecap="round" stroke-linejoin="round" stroke-miterlimit="10" d="
		M114.269,240.446c0,0,14.103,9.59,17.078,21.189"/>
</g>
<g>
	
		<rect x="-3.11" y="70.452" transform="matrix(0.943 0.3329 -0.3329 0.943 33.108 5.5087)" fill="none" stroke="#333333" stroke-width="3" stroke-linecap="round" stroke-linejoin="round" stroke-miterlimit="10" width="7.176" height="57.846"/>
	
		<polygon fill="none" stroke="#333333" stroke-width="3" stroke-linecap="round" stroke-linejoin="round" stroke-miterlimit="10" points="
		-12.591,125.622 -5.824,128.011 -12.552,136.29 	"/>
	
		<rect x="7.421" y="66.838" transform="matrix(-0.943 -0.3329 0.3329 -0.943 -1.761 138.7936)" fill="none" stroke="#333333" stroke-width="3" stroke-linecap="round" stroke-linejoin="round" stroke-miterlimit="10" width="7.176" height="5.42"/>
</g>
<g>
	<path fill="#333333" d="M158.144,137.182c-2.027,0-3.805-1.369-4.323-3.33l-12.203-46.077c-0.306-1.155-0.144-2.361,0.457-3.395
		c0.602-1.034,1.568-1.771,2.724-2.077l21.089-5.585c0.375-0.099,0.762-0.15,1.147-0.15c2.027,0,3.805,1.37,4.323,3.331
		l12.203,46.078c0.306,1.155,0.144,2.36-0.457,3.394s-1.568,1.771-2.724,2.077l-21.089,5.584
		C158.916,137.132,158.53,137.182,158.144,137.182z M167.035,79.569c-0.127,0-0.255,0.017-0.379,0.05l-21.09,5.585
		c-0.381,0.101-0.699,0.344-0.897,0.684c-0.198,0.341-0.252,0.738-0.15,1.119l12.203,46.078c0.203,0.769,1.021,1.255,1.802,1.047
		l21.09-5.584c0.381-0.101,0.7-0.344,0.897-0.685c0.198-0.34,0.252-0.737,0.15-1.118l-12.203-46.079
		C168.287,80.02,167.702,79.569,167.035,79.569z"/>
</g>
<g>
	<path fill="#333333" d="M158.436,126.727c-1.473,0-2.766-0.996-3.143-2.421l-9.242-34.897c-0.223-0.839-0.104-1.716,0.332-2.467
		c0.437-0.751,1.14-1.287,1.979-1.51l15.974-4.23c0.272-0.072,0.554-0.109,0.835-0.109c1.472,0,2.764,0.996,3.143,2.421
		l9.242,34.897c0.459,1.733-0.578,3.518-2.312,3.978l-15.972,4.23C158.998,126.69,158.717,126.727,158.436,126.727z M165.17,83.092
		c-0.107,0-0.217,0.015-0.322,0.042l-15.974,4.23c-0.323,0.085-0.594,0.292-0.762,0.582c-0.169,0.29-0.214,0.627-0.128,0.95
		l9.242,34.897c0.174,0.655,0.87,1.069,1.532,0.89l15.972-4.23c0.668-0.177,1.067-0.864,0.891-1.532l-9.242-34.897
		C166.234,83.476,165.737,83.092,165.17,83.092z"/>
</g>
<g>
	<path fill="#333333" d="M168.205,132.068c-2.198,0-3.987-1.789-3.987-3.988c0-2.199,1.789-3.988,3.987-3.988
		c2.199,0,3.988,1.789,3.988,3.988C172.193,130.279,170.404,132.068,168.205,132.068z M168.205,126.092
		c-1.096,0-1.987,0.892-1.987,1.988s0.892,1.988,1.987,1.988c1.097,0,1.988-0.892,1.988-1.988S169.301,126.092,168.205,126.092z"/>
</g>
<path fill="#FFFFFF" stroke="#333333" stroke-width="3" stroke-linecap="round" stroke-miterlimit="10" d="M63.046,155.02
	c3.77-17.623-41.142-30.494-32.395-24.23c2.389,1.71,4.825,4.246,5.775,7.066c0.6,1.773,0.747,3.83,0.657,5.684
	c-0.327,6.709-3.389,14.943,3.242,19.71c1.796,1.293,4.01,2.226,6.221,2.494"/>
<path fill="#FFFFFF" stroke="#333333" stroke-width="3" stroke-linecap="round" stroke-miterlimit="10" d="M125.798,164.504
	c17.38-4.769,8.122-50.562,6.589-39.914c-0.418,2.908-1.547,6.238-3.612,8.381c-1.297,1.349-3.056,2.427-4.742,3.201
	c-6.106,2.8-14.825,3.873-16.002,11.954c-0.32,2.189-0.129,4.584,0.651,6.671"/>
<path fill="#FFFFFF" stroke="#333333" stroke-width="3" stroke-miterlimit="10" d="M138.061,197.278
	c0,29.28-23.736,53.016-53.016,53.016c-10.283,0-19.882-2.928-28.01-7.995c-15.015-9.361-25.006-26.025-25.006-45.022
	c0-29.28,23.736-53.016,53.016-53.016S138.061,167.998,138.061,197.278z"/>
<ellipse fill="#FFFFFF" stroke="#333333" stroke-width="3" stroke-miterlimit="10" cx="85.045" cy="211.508" rx="22.684" ry="15.364"/>
<g>
	<g>
		<g>
			<path fill="#333333" d="M112.226,149.224c0.249-1.745,1.813-3.719,3.475-4.387c1.663-0.669,4.826-1.939,7.029-2.822l3.986-1.599
				c2.202-0.884,3.329,0.214,2.504,2.438l-1.598,4.307c-0.826,2.225-1.362,5.982-1.192,8.349l0.33,4.581
				c0.17,2.367-1.218,3.105-3.086,1.641l-3.379-2.649c-1.867-1.464-4.549-3.567-5.958-4.674
				C112.928,153.3,111.977,150.968,112.226,149.224z"/>
			<path fill="#333333" d="M125.406,163.484c-0.741,0-1.531-0.324-2.349-0.965l-4.135-3.242c-1.78-1.396-3.976-3.117-5.203-4.082
				c-1.691-1.331-2.782-4.016-2.483-6.112c0.3-2.1,2.098-4.372,4.092-5.174l11.017-4.421c1.636-0.657,3.028-0.419,3.719,0.574
				c0.375,0.538,0.695,1.521,0.095,3.14l-1.599,4.307c-0.772,2.083-1.29,5.715-1.132,7.931l0.33,4.58
				c0.087,1.202-0.17,2.162-0.74,2.775C126.597,163.246,126.039,163.484,125.406,163.484z M128.079,141.11
				c-0.186,0-0.508,0.04-0.99,0.233l-11.015,4.421c-1.324,0.532-2.66,2.215-2.857,3.602c-0.198,1.384,0.615,3.373,1.739,4.257
				c1.227,0.965,3.421,2.686,5.2,4.08l4.136,3.242c0.639,0.501,1.014,0.539,1.114,0.539c0.099,0,0.124-0.027,0.147-0.052
				c0.129-0.139,0.261-0.555,0.21-1.27l-0.33-4.58c-0.18-2.492,0.382-6.427,1.251-8.77l1.599-4.307
				c0.287-0.774,0.216-1.19,0.139-1.303C128.361,141.117,128.144,141.11,128.079,141.11z"/>
		</g>
		<g>
			<path fill="#333333" d="M112.226,149.224c0.249-1.745,1.813-3.719,3.475-4.387c1.663-0.669,4.826-1.939,7.029-2.822l3.986-1.599
				c2.202-0.884,3.329,0.214,2.504,2.438l-1.598,4.307c-0.826,2.225-1.362,5.982-1.192,8.349l0.33,4.581
				c0.17,2.367-1.218,3.105-3.086,1.641l-3.379-2.649c-1.867-1.464-4.549-3.567-5.958-4.674
				C112.928,153.3,111.977,150.968,112.226,149.224z"/>
			<path fill="#333333" d="M125.406,163.484c-0.741,0-1.531-0.324-2.349-0.965l-4.135-3.242c-1.78-1.396-3.976-3.117-5.203-4.082
				c-1.691-1.331-2.782-4.016-2.483-6.112c0.3-2.1,2.098-4.372,4.092-5.174l11.017-4.421c1.636-0.657,3.028-0.419,3.719,0.574
				c0.375,0.538,0.695,1.521,0.095,3.14l-1.599,4.307c-0.772,2.083-1.29,5.715-1.132,7.931l0.33,4.58
				c0.087,1.202-0.17,2.162-0.74,2.775C126.597,163.246,126.039,163.484,125.406,163.484z M128.079,141.11
				c-0.186,0-0.508,0.04-0.99,0.233l-11.015,4.421c-1.324,0.532-2.66,2.215-2.857,3.602c-0.198,1.384,0.615,3.373,1.739,4.257
				c1.227,0.965,3.421,2.686,5.2,4.08l4.136,3.242c0.639,0.501,1.014,0.539,1.114,0.539c0.099,0,0.124-0.027,0.147-0.052
				c0.129-0.139,0.261-0.555,0.21-1.27l-0.33-4.58c-0.18-2.492,0.382-6.427,1.251-8.77l1.599-4.307
				c0.287-0.774,0.216-1.19,0.139-1.303C128.361,141.117,128.144,141.11,128.079,141.11z"/>
		</g>
	</g>
	<g>
		<g>
			<path fill="#333333" d="M104.448,148.953c-0.249,1.745-1.812,3.72-3.474,4.387c-1.663,0.668-4.825,1.939-7.028,2.822l-3.986,1.6
				c-2.202,0.884-3.328-0.213-2.504-2.438l1.598-4.307c0.826-2.225,1.361-5.982,1.191-8.349l-0.33-4.581
				c-0.17-2.367,1.218-3.105,3.086-1.641l3.379,2.65c1.867,1.464,4.549,3.567,5.957,4.674
				C103.746,144.875,104.697,147.208,104.448,148.953z"/>
			<path fill="#333333" d="M88.597,159.068c-0.852,0-1.556-0.338-1.983-0.951c-0.375-0.538-0.696-1.521-0.096-3.141l1.599-4.307
				c0.772-2.082,1.29-5.713,1.131-7.931l-0.33-4.58c-0.086-1.202,0.17-2.162,0.741-2.775c0.912-0.978,2.442-0.914,3.959,0.275
				l9.338,7.325c1.691,1.326,2.782,4.011,2.482,6.11c-0.3,2.101-2.097,4.374-4.092,5.174l-11.014,4.422
				C89.707,158.941,89.124,159.068,88.597,159.068z M91.27,136.694c-0.099,0-0.125,0.027-0.147,0.052
				c-0.129,0.139-0.261,0.555-0.21,1.27l0.33,4.58c0.179,2.494-0.382,6.428-1.251,8.77l-1.598,4.307
				c-0.287,0.775-0.216,1.191-0.138,1.303c0.061,0.087,0.277,0.094,0.342,0.094c0.186,0,0.508-0.04,0.99-0.233l11.014-4.422
				c1.324-0.531,2.659-2.214,2.856-3.602c0.198-1.385-0.614-3.373-1.737-4.254l-9.336-7.324
				C91.746,136.732,91.37,136.694,91.27,136.694z"/>
		</g>
		<g>
			<path fill="#333333" d="M104.448,148.953c-0.249,1.745-1.812,3.72-3.474,4.387c-1.663,0.668-4.825,1.939-7.028,2.822l-3.986,1.6
				c-2.202,0.884-3.328-0.213-2.504-2.438l1.598-4.307c0.826-2.225,1.361-5.982,1.191-8.349l-0.33-4.581
				c-0.17-2.367,1.218-3.105,3.086-1.641l3.379,2.65c1.867,1.464,4.549,3.567,5.957,4.674
				C103.746,144.875,104.697,147.208,104.448,148.953z"/>
			<path fill="#333333" d="M88.597,159.068c-0.852,0-1.556-0.338-1.983-0.951c-0.375-0.538-0.696-1.521-0.096-3.141l1.599-4.307
				c0.772-2.082,1.29-5.713,1.131-7.931l-0.33-4.58c-0.086-1.202,0.17-2.162,0.741-2.775c0.912-0.978,2.442-0.914,3.959,0.275
				l9.338,7.325c1.691,1.326,2.782,4.011,2.482,6.11c-0.3,2.101-2.097,4.374-4.092,5.174l-11.014,4.422
				C89.707,158.941,89.124,159.068,88.597,159.068z M91.27,136.694c-0.099,0-0.125,0.027-0.147,0.052
				c-0.129,0.139-0.261,0.555-0.21,1.27l0.33,4.58c0.179,2.494-0.382,6.428-1.251,8.77l-1.598,4.307
				c-0.287,0.775-0.216,1.191-0.138,1.303c0.061,0.087,0.277,0.094,0.342,0.094c0.186,0,0.508-0.04,0.99-0.233l11.014-4.422
				c1.324-0.531,2.659-2.214,2.856-3.602c0.198-1.385-0.614-3.373-1.737-4.254l-9.336-7.324
				C91.746,136.732,91.37,136.694,91.27,136.694z"/>
		</g>
	</g>
	<g>
		<path fill="#333333" d="M113.407,150.705c-0.274,2.25-2.321,3.85-4.572,3.575l-2.423-0.296c-2.25-0.275-3.85-2.323-3.576-4.571
			l0.295-2.424c0.276-2.25,2.322-3.853,4.573-3.577l2.424,0.297c2.252,0.274,3.853,2.321,3.577,4.572L113.407,150.705z"/>
		<path fill="#333333" d="M109.339,155.311c-0.206,0-0.415-0.013-0.625-0.039l-2.424-0.296c-2.793-0.342-4.788-2.892-4.446-5.685
			l0.294-2.424c0.339-2.763,2.871-4.799,5.687-4.448l2.425,0.297c1.354,0.165,2.562,0.847,3.402,1.921
			c0.841,1.074,1.212,2.411,1.045,3.766l-0.298,2.424C114.088,153.382,111.914,155.311,109.339,155.311z M107.2,144.381
			c-1.562,0-2.886,1.174-3.076,2.729l-0.294,2.424c-0.208,1.698,1.005,3.25,2.703,3.458l2.424,0.296
			c1.73,0.206,3.254-1.024,3.457-2.704l0.299-2.425c0.101-0.823-0.125-1.637-0.636-2.289c-0.511-0.653-1.245-1.068-2.069-1.169
			l-2.425-0.297C107.454,144.388,107.327,144.381,107.2,144.381z"/>
	</g>
</g>
<ellipse fill="#333333" stroke="#333333" stroke-width="2" stroke-miterlimit="10" cx="67.519" cy="178.155" rx="2.604" ry="3.255"/>
<ellipse fill="#333333" stroke="#333333" stroke-width="2" stroke-miterlimit="10" cx="100.885" cy="178.155" rx="2.604" ry="3.255"/>
<ellipse fill="#333333" stroke="#333333" stroke-width="2" stroke-miterlimit="10" cx="79.114" cy="211.487" rx="1.801" ry="4.001"/>
<g>
	<path fill="none" stroke="#333333" stroke-width="2" stroke-linecap="round" stroke-linejoin="round" stroke-miterlimit="10" d="
		M99.543,230.579c0,0,11.319,3.165,14.759-9.495"/>
	<path fill="none" stroke="#333333" stroke-width="2" stroke-linecap="round" stroke-linejoin="round" stroke-miterlimit="10" d="
		M112.066,217.391c0,0,2.679,7.449,7.039,3.693"/>
</g>
<ellipse fill="#333333" stroke="#333333" stroke-width="2" stroke-miterlimit="10" cx="90.419" cy="211.487" rx="1.801" ry="4.001"/>
<path fill="#333333" d="M136.433,168.367c-0.94-2.863-4.793-2.882-7.231-3.27c-3.943-0.625-7.996-0.346-11.975-0.467
	c-6.704-0.2-13.413,0.388-19.929,2.026c-3.919,0.989-8.469,1.996-12.515,1.868c-2.427-0.073-4.726-0.637-6.904-1.147
	c-11.332-2.639-22.877-4.028-34.488-2.663c-2.117,0.249-9.33-0.109-9.943,2.833c-0.667,3.191,1.571,4.659,2.918,7.049
	c0.698,1.238,1.086,2.584,1.341,3.974c0.528,2.918,0.394,5.933,1.201,8.809c1.165,4.162,4.447,8.335,8.56,9.876
	c2.9,1.092,6.437,1.292,9.512,1.207c18.388-0.479,23.168-15.197,24.175-20.796c0.54-3.003,2.087-3.312,3.816-3.355
	c3.064-0.085,3.415,2.154,3.949,3.513c6.303,15.931,10.095,19.559,23.32,20.711c5.915,0.516,12.267-0.158,15.773-5.442
	c2.718-4.107,2.785-8.317,3.731-12.94c0.273-1.304,0.746-2.512,1.395-3.67C134.467,174.088,137.446,171.449,136.433,168.367z
	 M75.84,181.44c-2.815,8.299-7.225,14.329-18.558,14.633c-11.223,0-14.481-2.044-15.973-15.112c0-8.772-0.576-13.905,16.07-13.874
	C68.603,168.167,80.372,168.058,75.84,181.44z M128.923,180.961c-1.492,13.067-4.75,15.112-15.973,15.112
	c-11.332-0.303-15.743-6.327-18.558-14.633c-4.532-13.383,7.237-13.274,18.46-14.347
	C129.499,167.057,128.923,172.195,128.923,180.961z"/>
<g>
	<path fill="#333333" stroke="#333333" stroke-miterlimit="10" d="M123.228,47.678L72.392,10.107
		c-1.307-0.966-3.147-0.685-4.108,0.616L45.942,40.954c-0.962,1.302-0.692,3.143,0.616,4.109l50.837,37.572
		c1.301,0.962,3.146,0.685,4.109-0.617l22.343-30.231C124.806,50.485,124.53,48.64,123.228,47.678z M100.004,80.91
		c-0.351,0.475-1.022,0.581-1.502,0.227L47.665,43.565c-0.48-0.354-0.575-1.028-0.224-1.502l22.343-30.231
		c0.35-0.474,1.022-0.579,1.501-0.225l50.837,37.572c0.48,0.355,0.575,1.028,0.225,1.501L100.004,80.91z"/>
	<path fill="#333333" stroke="#333333" stroke-miterlimit="10" d="M106.535,94.145l-4.537-3.353
		c0.303-0.184,0.579-0.433,0.805-0.738l29.105-39.381c0.962-1.301,0.685-3.146-0.616-4.108L71.091,2.073
		c-1.301-0.962-3.148-0.685-4.109,0.616l-29.105,39.38c-0.226,0.305-0.383,0.643-0.468,0.987l-4.538-3.354
		c-0.414-0.306-0.993-0.224-1.303,0.196c-2.242,3.034,0.895,8.885,7.304,13.622l52.695,38.945
		c6.408,4.736,12.922,6.017,15.164,2.983C107.041,95.029,106.95,94.452,106.535,94.145z M92.675,90.966L39.979,52.021
		c-4.952-3.66-7.502-7.862-7.252-10.107l5.768,4.263L61.45,63.141c-0.108,0.711,0.169,1.451,0.793,1.912l11.438,8.454
		c0.623,0.461,1.413,0.508,2.06,0.196l22.955,16.965l5.767,4.262C102.391,95.83,97.626,94.626,92.675,90.966z M39.377,43.177
		l29.105-39.38c0.35-0.474,1.022-0.579,1.501-0.225l60.201,44.492c0.48,0.354,0.575,1.028,0.225,1.501l-29.105,39.381
		c-0.351,0.474-1.021,0.578-1.5,0.224L39.603,44.678C39.123,44.323,39.027,43.651,39.377,43.177z"/>
</g>
<g>
	<path fill="#333333" stroke="#333333" stroke-miterlimit="10" d="M68.388,36.815c0.169-0.225,0.396-0.321,0.679-0.29l11.155,0.869
		c0.221,0.008,0.402,0.093,0.542,0.255c0.139,0.162,0.198,0.349,0.176,0.559c-0.008,0.222-0.096,0.406-0.263,0.553
		c-0.168,0.147-0.357,0.209-0.567,0.187l-9.975-0.782l3.167,8.925c0.068,0.211,0.06,0.415-0.026,0.612s-0.238,0.327-0.456,0.39
		c-0.264,0.108-0.508,0.078-0.733-0.092c-0.116-0.088-0.206-0.218-0.269-0.39l-3.559-10.057
		C68.153,37.315,68.196,37.069,68.388,36.815z"/>
	<path fill="#333333" stroke="#333333" stroke-miterlimit="10" d="M76.519,50.96c0.076-0.199,0.213-0.354,0.411-0.466l18.573-8.265
		c0.196-0.079,0.394-0.078,0.594,0.004c0.2,0.082,0.346,0.227,0.44,0.434c0.09,0.182,0.097,0.372,0.022,0.571
		c-0.076,0.199-0.22,0.349-0.433,0.45l-18.564,8.254c-0.275,0.123-0.532,0.094-0.771-0.087c-0.102-0.077-0.19-0.178-0.266-0.303
		C76.445,51.356,76.443,51.159,76.519,50.96z"/>
	<path fill="#333333" stroke="#333333" stroke-miterlimit="10" d="M96.638,50.048c0.196-0.079,0.391-0.074,0.586,0.015
		c0.194,0.09,0.325,0.24,0.394,0.451L101.519,61c0.108,0.264,0.078,0.508-0.092,0.733c-0.192,0.254-0.416,0.363-0.674,0.328
		l-10.648-0.658c-0.184-0.013-0.333-0.064-0.449-0.151c-0.225-0.17-0.322-0.396-0.29-0.679c0.001-0.227,0.084-0.409,0.249-0.546
		s0.359-0.201,0.581-0.193l9.452,0.592l-3.493-9.376c-0.08-0.197-0.072-0.395,0.023-0.597
		C96.273,50.251,96.426,50.116,96.638,50.048z"/>
</g>
</svg>
