<?xml version="1.0" encoding="utf-8"?>
<!-- Generator: Adobe Illustrator 17.0.2, SVG Export Plug-In . SVG Version: 6.00 Build 0)  -->
<!DOCTYPE svg PUBLIC "-//W3C//DTD SVG 1.1//EN" "http://www.w3.org/Graphics/SVG/1.1/DTD/svg11.dtd">
<svg version="1.1" id="Layer_1" xmlns="http://www.w3.org/2000/svg" xmlns:xlink="http://www.w3.org/1999/xlink" x="0px" y="0px"
	 width="201.8px" height="267.9px" viewBox="-16.09 -1.002 201.8 267.9" enable-background="new -16.09 -1.002 201.8 267.9"
	 xml:space="preserve">
<g>
	<g>
		<g>
			<path fill="#333333" stroke="#333333" stroke-width="3.0511" stroke-linejoin="round" stroke-miterlimit="10" d="
				M122.642,243.148c0,0-12.031,16.733-21.544,16.733c-5.081,0-10.156-4.115-13.755-16.731l0.623,0.342c0,0,8.785,3.131,26.35-6.952
				L122.642,243.148z"/>
			<path fill="#333333" stroke="#333333" stroke-width="3.0511" stroke-linejoin="round" stroke-miterlimit="10" d="M86.77,243.492
				l0.573-0.342c-3.599,12.616-8.668,16.731-13.743,16.731c-9.495,0-23.228-16.733-23.228-16.733l11.185-7.656
				C79.129,245.576,86.77,243.492,86.77,243.492z"/>
		</g>
		
			<path fill="none" stroke="#333333" stroke-width="3.0511" stroke-linecap="round" stroke-linejoin="round" stroke-miterlimit="10" d="
			M56.292,237.545c0,0-13.489,8.749-16.515,20.545"/>
		
			<path fill="none" stroke="#333333" stroke-width="3.0511" stroke-linecap="round" stroke-linejoin="round" stroke-miterlimit="10" d="
			M115.809,236.54c0,0,14.343,9.753,17.369,21.55"/>
	</g>
	<path fill="#FFFFFF" stroke="#333333" stroke-width="3.0511" stroke-linecap="round" stroke-miterlimit="10" d="M63.713,149.658
		c3.834-17.923-41.843-31.014-32.947-24.643c2.43,1.739,4.907,4.318,5.873,7.186c0.61,1.803,0.76,3.895,0.668,5.781
		c-0.333,6.823-3.447,15.198,3.297,20.046c1.827,1.315,4.078,2.264,6.327,2.536"/>
	<path fill="#FFFFFF" stroke="#333333" stroke-width="3.0511" stroke-linecap="round" stroke-miterlimit="10" d="M127.534,159.304
		c17.676-4.85,8.26-51.424,6.701-40.594c-0.425,2.958-1.573,6.344-3.674,8.524c-1.319,1.372-3.108,2.468-4.823,3.256
		c-6.21,2.848-15.078,3.939-16.275,12.158c-0.325,2.226-0.131,4.662,0.662,6.785"/>
	<path fill="#FFFFFF" stroke="#333333" stroke-width="3.0511" stroke-miterlimit="10" d="M140.006,192.636
		c0,29.779-24.14,53.919-53.919,53.919c-10.458,0-20.221-2.978-28.487-8.131c-15.271-9.521-25.432-26.468-25.432-45.789
		c0-29.779,24.14-53.919,53.919-53.919S140.006,162.857,140.006,192.636z"/>
	
		<ellipse fill="#FFFFFF" stroke="#333333" stroke-width="3.0511" stroke-miterlimit="10" cx="86.087" cy="207.109" rx="23.071" ry="15.626"/>
	<g>
		<g>
			<path fill="#333333" stroke="#333333" stroke-width="2.0341" stroke-miterlimit="10" d="M113.731,143.763
				c0.253-1.775,1.844-3.782,3.534-4.462c1.691-0.68,4.908-1.972,7.149-2.87l4.054-1.626c2.24-0.899,3.386,0.218,2.547,2.48
				l-1.625,4.38c-0.84,2.263-1.385,6.084-1.212,8.491l0.336,4.659c0.173,2.407-1.239,3.158-3.139,1.669l-3.437-2.694
				c-1.899-1.489-4.627-3.628-6.06-4.754C114.445,147.909,113.478,145.537,113.731,143.763z"/>
			
				<path fill="#333333" stroke="#333333" stroke-width="2.0341" stroke-linecap="round" stroke-linejoin="round" stroke-miterlimit="10" d="
				M113.731,143.763c0.253-1.775,1.844-3.782,3.534-4.462c1.691-0.68,4.908-1.972,7.149-2.87l4.054-1.626
				c2.24-0.899,3.386,0.218,2.547,2.48l-1.625,4.38c-0.84,2.263-1.385,6.084-1.212,8.491l0.336,4.659
				c0.173,2.407-1.239,3.158-3.139,1.669l-3.437-2.694c-1.899-1.489-4.627-3.628-6.06-4.754
				C114.445,147.909,113.478,145.537,113.731,143.763z"/>
		</g>
		<g>
			<path fill="#333333" stroke="#333333" stroke-width="2.0341" stroke-miterlimit="10" d="M105.82,143.488
				c-0.253,1.775-1.843,3.783-3.533,4.462c-1.691,0.679-4.907,1.972-7.148,2.87l-4.054,1.627c-2.24,0.899-3.385-0.217-2.547-2.48
				l1.625-4.38c0.84-2.263,1.384-6.084,1.211-8.491l-0.336-4.659c-0.173-2.407,1.239-3.158,3.139-1.669l3.437,2.695
				c1.899,1.489,4.627,3.628,6.059,4.754C105.106,139.34,106.073,141.713,105.82,143.488z"/>
			
				<path fill="#333333" stroke="#333333" stroke-width="2.0341" stroke-linecap="round" stroke-linejoin="round" stroke-miterlimit="10" d="
				M105.82,143.488c-0.253,1.775-1.843,3.783-3.533,4.462c-1.691,0.679-4.907,1.972-7.148,2.87l-4.054,1.627
				c-2.24,0.899-3.385-0.217-2.547-2.48l1.625-4.38c0.84-2.263,1.384-6.084,1.211-8.491l-0.336-4.659
				c-0.173-2.407,1.239-3.158,3.139-1.669l3.437,2.695c1.899,1.489,4.627,3.628,6.059,4.754
				C105.106,139.34,106.073,141.713,105.82,143.488z"/>
		</g>
		
			<path fill="#333333" stroke="#333333" stroke-width="2.0341" stroke-linecap="round" stroke-linejoin="round" stroke-miterlimit="10" d="
			M114.932,145.27c-0.279,2.288-2.361,3.916-4.65,3.636l-2.464-0.301c-2.288-0.28-3.916-2.363-3.637-4.649l0.3-2.465
			c0.281-2.288,2.362-3.919,4.651-3.638l2.465,0.302c2.29,0.279,3.919,2.361,3.638,4.65L114.932,145.27z"/>
	</g>
	
		<ellipse fill="#333333" stroke="#333333" stroke-width="2.0341" stroke-miterlimit="10" cx="68.262" cy="173.187" rx="2.648" ry="3.31"/>
	
		<ellipse fill="#333333" stroke="#333333" stroke-width="2.0341" stroke-miterlimit="10" cx="102.197" cy="173.187" rx="2.648" ry="3.31"/>
	
		<ellipse fill="#333333" stroke="#333333" stroke-width="2.0341" stroke-miterlimit="10" cx="80.055" cy="207.087" rx="1.832" ry="4.069"/>
	<g>
		
			<path fill="none" stroke="#333333" stroke-width="2.0341" stroke-linecap="round" stroke-linejoin="round" stroke-miterlimit="10" d="
			M100.832,226.505c0,0,11.512,3.219,15.01-9.657"/>
		
			<path fill="none" stroke="#333333" stroke-width="2.0341" stroke-linecap="round" stroke-linejoin="round" stroke-miterlimit="10" d="
			M113.568,213.092c0,0,2.725,7.576,7.159,3.756"/>
	</g>
	
		<ellipse fill="#333333" stroke="#333333" stroke-width="2.0341" stroke-miterlimit="10" cx="91.552" cy="207.087" rx="1.832" ry="4.069"/>
	<path fill="#333333" d="M138.35,163.233c-0.956-2.912-4.875-2.931-7.354-3.326c-4.01-0.636-8.132-0.352-12.179-0.475
		c-6.818-0.203-13.642,0.395-20.269,2.061c-3.986,1.006-8.613,2.03-12.728,1.9c-2.468-0.074-4.807-0.648-7.022-1.167
		c-11.525-2.684-23.267-4.097-35.076-2.708c-2.153,0.253-9.489-0.111-10.112,2.881c-0.678,3.245,1.598,4.738,2.968,7.169
		c0.71,1.259,1.105,2.628,1.364,4.042c0.537,2.968,0.401,6.034,1.221,8.959c1.185,4.233,4.523,8.477,8.706,10.044
		c2.949,1.111,6.547,1.314,9.674,1.228c18.701-0.487,23.563-15.456,24.587-21.15c0.549-3.054,2.123-3.368,3.881-3.412
		c3.116-0.086,3.473,2.191,4.016,3.573c6.41,16.202,10.267,19.892,23.717,21.064c6.016,0.525,12.476-0.161,16.042-5.535
		c2.764-4.177,2.832-8.459,3.795-13.161c0.278-1.326,0.759-2.555,1.419-3.733C136.351,169.051,139.381,166.367,138.35,163.233z
		 M76.725,176.528c-2.863,8.44-7.348,14.573-18.874,14.882c-11.414,0-14.728-2.079-16.245-15.369c0-8.921-0.586-14.142,16.344-14.11
		C69.364,163.029,81.334,162.918,76.725,176.528z M130.712,176.041c-1.517,13.29-4.831,15.369-16.245,15.369
		c-11.525-0.308-16.011-6.435-18.874-14.882c-4.609-13.611,7.36-13.5,18.775-14.591C131.298,161.9,130.712,167.126,130.712,176.041z
		"/>
</g>
<g>
	<g>
		
			<rect x="-517.325" y="-46.609" transform="matrix(-0.943 -0.3329 0.3329 -0.943 -992.2869 -205.3784)" fill="none" stroke="#333333" stroke-width="2.6" stroke-linecap="round" stroke-linejoin="round" stroke-miterlimit="10" width="7.176" height="57.848"/>
		
			<polygon fill="none" stroke="#333333" stroke-width="2.6" stroke-linecap="round" stroke-linejoin="round" stroke-miterlimit="10" points="
			-526.805,8.559 -520.038,10.948 -526.766,19.227 		"/>
		
			<rect x="-506.792" y="-50.229" transform="matrix(0.943 0.3329 -0.3329 0.943 -44.5179 164.8004)" fill="none" stroke="#333333" stroke-width="2.6" stroke-linecap="round" stroke-linejoin="round" stroke-miterlimit="10" width="7.176" height="5.42"/>
	</g>
	<path fill="none" stroke="#333333" stroke-width="3" stroke-linecap="round" stroke-linejoin="round" stroke-miterlimit="10" d="
		M-332.103,9.298c0.421,1.588-0.526,3.217-2.114,3.637l-21.089,5.585c-1.588,0.421-3.217-0.526-3.637-2.114l-12.203-46.078
		c-0.421-1.588,0.526-3.217,2.114-3.637l21.089-5.585c1.588-0.421,3.217,0.526,3.637,2.114L-332.103,9.298z"/>
	<path fill="none" stroke="#333333" stroke-width="2" stroke-linecap="round" stroke-linejoin="round" stroke-miterlimit="10" d="
		M-337.626,1.603c0.319,1.203-0.398,2.436-1.601,2.755l-15.972,4.23c-1.203,0.319-2.436-0.398-2.755-1.601l-9.242-34.897
		c-0.319-1.203,0.398-2.436,1.601-2.755l15.972-4.23c1.203-0.319,2.436,0.398,2.755,1.601L-337.626,1.603z"/>
	
		<circle fill="none" stroke="#333333" stroke-linecap="round" stroke-linejoin="round" stroke-miterlimit="10" cx="-346.009" cy="11.017" r="2.988"/>
	<g>
		<path fill="#333333" stroke="#333333" stroke-miterlimit="10" d="M-390.986-69.385l-50.836-37.571
			c-1.307-0.966-3.147-0.685-4.108,0.616l-22.342,30.231c-0.962,1.302-0.692,3.143,0.616,4.109l50.837,37.572
			c1.301,0.962,3.146,0.685,4.109-0.617l22.343-30.231C-389.408-66.578-389.684-68.423-390.986-69.385z M-414.21-36.153
			c-0.351,0.475-1.022,0.581-1.502,0.227l-50.837-37.572c-0.48-0.354-0.575-1.028-0.224-1.502l22.343-30.231
			c0.35-0.474,1.022-0.579,1.501-0.225l50.837,37.572c0.48,0.355,0.575,1.028,0.225,1.501L-414.21-36.153z"/>
		<path fill="#333333" stroke="#333333" stroke-miterlimit="10" d="M-407.679-22.918l-4.537-3.353
			c0.303-0.184,0.579-0.433,0.805-0.738l29.105-39.381c0.962-1.301,0.685-3.146-0.616-4.108l-60.201-44.492
			c-1.301-0.962-3.148-0.685-4.109,0.616l-29.105,39.38c-0.226,0.305-0.383,0.643-0.468,0.987l-4.538-3.354
			c-0.414-0.306-0.993-0.224-1.303,0.196c-2.242,3.034,0.895,8.885,7.304,13.622l52.695,38.945
			c6.408,4.736,12.922,6.017,15.164,2.983C-407.173-22.034-407.264-22.611-407.679-22.918z M-421.539-26.097l-52.696-38.945
			c-4.952-3.66-7.502-7.862-7.252-10.107l5.768,4.263l22.955,16.964c-0.108,0.711,0.169,1.451,0.793,1.912l11.438,8.454
			c0.623,0.461,1.413,0.508,2.06,0.196l22.955,16.965l5.767,4.262C-411.823-21.233-416.588-22.437-421.539-26.097z M-474.837-73.886
			l29.105-39.38c0.35-0.474,1.022-0.579,1.501-0.225l60.201,44.492c0.48,0.354,0.575,1.028,0.225,1.501l-29.105,39.381
			c-0.351,0.474-1.021,0.578-1.5,0.224l-60.201-44.492C-475.091-72.74-475.187-73.412-474.837-73.886z"/>
	</g>
	<g>
		<path fill="#333333" stroke="#333333" stroke-miterlimit="10" d="M-445.826-80.248c0.169-0.225,0.396-0.321,0.679-0.29
			l11.155,0.869c0.221,0.008,0.402,0.093,0.542,0.255c0.139,0.162,0.198,0.349,0.176,0.559c-0.008,0.222-0.096,0.406-0.263,0.553
			c-0.168,0.147-0.357,0.209-0.567,0.187l-9.975-0.782l3.167,8.925c0.068,0.211,0.06,0.415-0.026,0.612s-0.238,0.327-0.456,0.39
			c-0.264,0.108-0.508,0.078-0.733-0.092c-0.116-0.088-0.206-0.218-0.269-0.39l-3.559-10.057
			C-446.061-79.748-446.018-79.994-445.826-80.248z"/>
		<path fill="#333333" stroke="#333333" stroke-miterlimit="10" d="M-437.695-66.103c0.076-0.199,0.213-0.354,0.411-0.466
			l18.573-8.265c0.196-0.079,0.394-0.078,0.594,0.004c0.2,0.082,0.346,0.227,0.44,0.434c0.09,0.182,0.097,0.372,0.022,0.571
			c-0.076,0.199-0.22,0.349-0.433,0.45l-18.564,8.254c-0.275,0.123-0.532,0.094-0.771-0.087c-0.102-0.077-0.19-0.178-0.266-0.303
			C-437.769-65.707-437.771-65.904-437.695-66.103z"/>
		<path fill="#333333" stroke="#333333" stroke-miterlimit="10" d="M-417.576-67.015c0.196-0.079,0.391-0.074,0.586,0.015
			c0.194,0.09,0.325,0.24,0.394,0.451l3.901,10.486c0.108,0.264,0.078,0.508-0.092,0.733c-0.192,0.254-0.416,0.363-0.674,0.328
			l-10.648-0.658c-0.184-0.013-0.333-0.064-0.449-0.151c-0.225-0.17-0.322-0.396-0.29-0.679c0.001-0.227,0.084-0.409,0.249-0.546
			s0.359-0.201,0.581-0.193l9.452,0.592l-3.493-9.376c-0.08-0.197-0.072-0.395,0.023-0.597
			C-417.941-66.812-417.788-66.947-417.576-67.015z"/>
	</g>
</g>
</svg>
