<?xml version="1.0" encoding="utf-8"?>
<!-- Generator: Adobe Illustrator 17.0.2, SVG Export Plug-In . SVG Version: 6.00 Build 0)  -->
<!DOCTYPE svg PUBLIC "-//W3C//DTD SVG 1.1//EN" "http://www.w3.org/Graphics/SVG/1.1/DTD/svg11.dtd">
<svg version="1.1" id="Layer_1" xmlns="http://www.w3.org/2000/svg" xmlns:xlink="http://www.w3.org/1999/xlink" x="0px" y="0px"
	 width="201.8px" height="267.9px" viewBox="-16.09 -1.002 201.8 267.9" enable-background="new -16.09 -1.002 201.8 267.9"
	 xml:space="preserve">
<g>
	<g>
		<g>
			<path fill="#333333" stroke="#333333" stroke-width="3.883" stroke-linejoin="round" stroke-miterlimit="10" d="M132.957,202.519
				c0,0-15.311,21.296-27.418,21.296c-6.466,0-12.925-5.237-17.506-21.293l0.793,0.435c0,0,11.18,3.985,33.535-8.848
				L132.957,202.519z"/>
			<path fill="#333333" stroke="#333333" stroke-width="3.883" stroke-linejoin="round" stroke-miterlimit="10" d="M87.304,202.957
				l0.729-0.435c-4.581,16.056-11.032,21.293-17.49,21.293c-12.084,0-29.561-21.296-29.561-21.296l14.235-9.744
				C77.58,205.609,87.304,202.957,87.304,202.957z"/>
		</g>
		
			<path fill="none" stroke="#333333" stroke-width="3.883" stroke-linecap="round" stroke-linejoin="round" stroke-miterlimit="10" d="
			M48.517,195.387c0,0-17.167,11.134-21.017,26.147"/>
		
			<path fill="none" stroke="#333333" stroke-width="3.883" stroke-linecap="round" stroke-linejoin="round" stroke-miterlimit="10" d="
			M124.26,194.109c0,0,18.254,12.413,22.104,27.425"/>
	</g>
	<path fill="#FFFFFF" stroke="#333333" stroke-width="3.883" stroke-linecap="round" stroke-miterlimit="10" d="M57.961,83.54
		C62.84,60.73,4.71,44.07,16.031,52.178c3.092,2.213,6.245,5.496,7.475,9.146c0.777,2.295,0.967,4.957,0.85,7.357
		c-0.423,8.684-4.386,19.341,4.196,25.511c2.325,1.674,5.19,2.881,8.052,3.228"/>
	<path fill="#FFFFFF" stroke="#333333" stroke-width="3.883" stroke-linecap="round" stroke-miterlimit="10" d="M139.182,95.815
		c22.495-6.173,10.513-65.444,8.528-51.662c-0.541,3.764-2.002,8.074-4.675,10.848c-1.679,1.746-3.955,3.141-6.138,4.143
		c-7.903,3.624-19.188,5.013-20.712,15.472c-0.414,2.833-0.167,5.933,0.843,8.634"/>
	<path fill="#FFFFFF" stroke="#333333" stroke-width="3.883" stroke-miterlimit="10" d="M155.055,138.235
		c0,37.898-30.722,68.62-68.62,68.62c-13.31,0-25.734-3.79-36.254-10.348c-19.434-12.116-32.366-33.685-32.366-58.273
		c0-37.898,30.722-68.62,68.62-68.62S155.055,100.337,155.055,138.235z"/>
	
		<ellipse fill="#FFFFFF" stroke="#333333" stroke-width="3.883" stroke-miterlimit="10" cx="86.435" cy="156.653" rx="29.36" ry="19.886"/>
	<g>
		<g>
			<path fill="#333333" stroke="#333333" stroke-width="2.5886" stroke-miterlimit="10" d="M121.616,76.038
				c0.322-2.259,2.347-4.814,4.498-5.678c2.152-0.866,6.246-2.51,9.098-3.653l5.159-2.07c2.85-1.144,4.309,0.277,3.241,3.156
				l-2.068,5.575c-1.069,2.88-1.763,7.743-1.543,10.806l0.427,5.929c0.22,3.064-1.576,4.019-3.994,2.124l-4.374-3.429
				c-2.417-1.895-5.888-4.617-7.712-6.05C122.524,81.313,121.293,78.295,121.616,76.038z"/>
			
				<path fill="#333333" stroke="#333333" stroke-width="2.5886" stroke-linecap="round" stroke-linejoin="round" stroke-miterlimit="10" d="
				M121.616,76.038c0.322-2.259,2.347-4.814,4.498-5.678c2.152-0.866,6.246-2.51,9.098-3.653l5.159-2.07
				c2.85-1.144,4.309,0.277,3.241,3.156l-2.068,5.575c-1.069,2.88-1.763,7.743-1.543,10.806l0.427,5.929
				c0.22,3.064-1.576,4.019-3.994,2.124l-4.374-3.429c-2.417-1.895-5.888-4.617-7.712-6.05
				C122.524,81.313,121.293,78.295,121.616,76.038z"/>
		</g>
		<g>
			<path fill="#333333" stroke="#333333" stroke-width="2.5886" stroke-miterlimit="10" d="M111.548,75.687
				c-0.322,2.259-2.345,4.815-4.496,5.678c-2.152,0.865-6.245,2.51-9.097,3.653l-5.159,2.071c-2.85,1.144-4.308-0.276-3.241-3.156
				l2.068-5.575c1.069-2.88,1.762-7.743,1.542-10.806l-0.427-5.929c-0.22-3.064,1.576-4.019,3.994-2.124l4.374,3.43
				c2.416,1.895,5.888,4.617,7.71,6.05C110.64,70.409,111.871,73.428,111.548,75.687z"/>
			
				<path fill="#333333" stroke="#333333" stroke-width="2.5886" stroke-linecap="round" stroke-linejoin="round" stroke-miterlimit="10" d="
				M111.548,75.687c-0.322,2.259-2.345,4.815-4.496,5.678c-2.152,0.865-6.245,2.51-9.097,3.653l-5.159,2.071
				c-2.85,1.144-4.308-0.276-3.241-3.156l2.068-5.575c1.069-2.88,1.762-7.743,1.542-10.806l-0.427-5.929
				c-0.22-3.064,1.576-4.019,3.994-2.124l4.374,3.43c2.416,1.895,5.888,4.617,7.71,6.05
				C110.64,70.409,111.871,73.428,111.548,75.687z"/>
		</g>
		
			<path fill="#333333" stroke="#333333" stroke-width="2.5886" stroke-linecap="round" stroke-linejoin="round" stroke-miterlimit="10" d="
			M123.144,77.955c-0.355,2.912-3.004,4.983-5.918,4.627l-3.136-0.383c-2.912-0.356-4.983-3.007-4.629-5.916l0.382-3.137
			c0.357-2.912,3.005-4.987,5.919-4.63L118.9,68.9c2.915,0.355,4.987,3.004,4.63,5.918L123.144,77.955z"/>
	</g>
	
		<ellipse fill="#333333" stroke="#333333" stroke-width="2.5886" stroke-miterlimit="10" cx="63.75" cy="113.484" rx="3.37" ry="4.213"/>
	
		<ellipse fill="#333333" stroke="#333333" stroke-width="2.5886" stroke-miterlimit="10" cx="106.937" cy="113.484" rx="3.37" ry="4.213"/>
	
		<ellipse fill="#333333" stroke="#333333" stroke-width="2.5886" stroke-miterlimit="10" cx="78.758" cy="156.626" rx="2.331" ry="5.179"/>
	<g>
		
			<path fill="none" stroke="#333333" stroke-width="2.5886" stroke-linecap="round" stroke-linejoin="round" stroke-miterlimit="10" d="
			M105.2,181.338c0,0,14.65,4.097,19.103-12.29"/>
		
			<path fill="none" stroke="#333333" stroke-width="2.5886" stroke-linecap="round" stroke-linejoin="round" stroke-miterlimit="10" d="
			M121.409,164.268c0,0,3.467,9.641,9.111,4.78"/>
	</g>
	
		<ellipse fill="#333333" stroke="#333333" stroke-width="2.5886" stroke-miterlimit="10" cx="93.39" cy="156.626" rx="2.331" ry="5.179"/>
	<path fill="#333333" d="M152.947,100.815c-1.217-3.706-6.204-3.73-9.359-4.232c-5.104-0.809-10.349-0.448-15.5-0.604
		c-8.677-0.259-17.361,0.502-25.795,2.622c-5.072,1.28-10.962,2.583-16.198,2.418c-3.141-0.094-6.117-0.824-8.936-1.485
		c-14.667-3.416-29.61-5.214-44.639-3.447c-2.74,0.322-12.076-0.141-12.869,3.667c-0.863,4.13,2.033,6.03,3.777,9.124
		c0.903,1.602,1.406,3.345,1.736,5.144c0.683,3.777,0.51,7.679,1.554,11.402c1.508,5.387,5.756,10.788,11.079,12.783
		c3.754,1.413,8.332,1.672,12.312,1.562c23.8-0.62,29.987-19.67,31.29-26.917c0.699-3.887,2.701-4.287,4.939-4.342
		c3.966-0.11,4.42,2.788,5.111,4.547c8.158,20.62,13.066,25.316,30.184,26.807c7.656,0.668,15.877-0.205,20.415-7.044
		c3.518-5.316,3.605-10.765,4.829-16.749c0.353-1.688,0.966-3.251,1.806-4.75C150.403,108.22,154.259,104.804,152.947,100.815z
		 M74.52,117.736c-3.644,10.742-9.351,18.546-24.02,18.94c-14.526,0-18.743-2.646-20.674-19.56c0-11.354-0.746-17.998,20.8-17.957
		C65.153,100.556,80.386,100.415,74.52,117.736z M143.227,117.116c-1.931,16.913-6.148,19.56-20.674,19.56
		c-14.667-0.392-20.377-8.189-24.02-18.94c-5.866-17.322,9.367-17.181,23.893-18.57C143.973,99.119,143.227,105.77,143.227,117.116z
		"/>
</g>
<g>
	<g>
		
			<rect x="-517.325" y="-46.609" transform="matrix(-0.943 -0.3329 0.3329 -0.943 -992.2869 -205.3784)" fill="none" stroke="#333333" stroke-width="2.6" stroke-linecap="round" stroke-linejoin="round" stroke-miterlimit="10" width="7.176" height="57.848"/>
		
			<polygon fill="none" stroke="#333333" stroke-width="2.6" stroke-linecap="round" stroke-linejoin="round" stroke-miterlimit="10" points="
			-526.805,8.559 -520.038,10.948 -526.766,19.227 		"/>
		
			<rect x="-506.792" y="-50.229" transform="matrix(0.943 0.3329 -0.3329 0.943 -44.5179 164.8004)" fill="none" stroke="#333333" stroke-width="2.6" stroke-linecap="round" stroke-linejoin="round" stroke-miterlimit="10" width="7.176" height="5.42"/>
	</g>
	<path fill="none" stroke="#333333" stroke-width="3" stroke-linecap="round" stroke-linejoin="round" stroke-miterlimit="10" d="
		M-332.103,9.298c0.421,1.588-0.526,3.217-2.114,3.637l-21.089,5.585c-1.588,0.421-3.217-0.526-3.637-2.114l-12.203-46.078
		c-0.421-1.588,0.526-3.217,2.114-3.637l21.089-5.585c1.588-0.421,3.217,0.526,3.637,2.114L-332.103,9.298z"/>
	<path fill="none" stroke="#333333" stroke-width="2" stroke-linecap="round" stroke-linejoin="round" stroke-miterlimit="10" d="
		M-337.626,1.603c0.319,1.203-0.398,2.436-1.601,2.755l-15.972,4.23c-1.203,0.319-2.436-0.398-2.755-1.601l-9.242-34.897
		c-0.319-1.203,0.398-2.436,1.601-2.755l15.972-4.23c1.203-0.319,2.436,0.398,2.755,1.601L-337.626,1.603z"/>
	
		<circle fill="none" stroke="#333333" stroke-linecap="round" stroke-linejoin="round" stroke-miterlimit="10" cx="-346.009" cy="11.017" r="2.988"/>
	<g>
		<path fill="#333333" stroke="#333333" stroke-miterlimit="10" d="M-390.986-69.385l-50.836-37.571
			c-1.307-0.966-3.147-0.685-4.108,0.616l-22.342,30.231c-0.962,1.302-0.692,3.143,0.616,4.109l50.837,37.572
			c1.301,0.962,3.146,0.685,4.109-0.617l22.343-30.231C-389.408-66.578-389.684-68.423-390.986-69.385z M-414.21-36.153
			c-0.351,0.475-1.022,0.581-1.502,0.227l-50.837-37.572c-0.48-0.354-0.575-1.028-0.224-1.502l22.343-30.231
			c0.35-0.474,1.022-0.579,1.501-0.225l50.837,37.572c0.48,0.355,0.575,1.028,0.225,1.501L-414.21-36.153z"/>
		<path fill="#333333" stroke="#333333" stroke-miterlimit="10" d="M-407.679-22.918l-4.537-3.353
			c0.303-0.184,0.579-0.433,0.805-0.738l29.105-39.381c0.962-1.301,0.685-3.146-0.616-4.108l-60.201-44.492
			c-1.301-0.962-3.148-0.685-4.109,0.616l-29.105,39.38c-0.226,0.305-0.383,0.643-0.468,0.987l-4.538-3.354
			c-0.414-0.306-0.993-0.224-1.303,0.196c-2.242,3.034,0.895,8.885,7.304,13.622l52.695,38.945
			c6.408,4.736,12.922,6.017,15.164,2.983C-407.173-22.034-407.264-22.611-407.679-22.918z M-421.539-26.097l-52.696-38.945
			c-4.952-3.66-7.502-7.862-7.252-10.107l5.768,4.263l22.955,16.964c-0.108,0.711,0.169,1.451,0.793,1.912l11.438,8.454
			c0.623,0.461,1.413,0.508,2.06,0.196l22.955,16.965l5.767,4.262C-411.823-21.233-416.588-22.437-421.539-26.097z M-474.837-73.886
			l29.105-39.38c0.35-0.474,1.022-0.579,1.501-0.225l60.201,44.492c0.48,0.354,0.575,1.028,0.225,1.501l-29.105,39.381
			c-0.351,0.474-1.021,0.578-1.5,0.224l-60.201-44.492C-475.091-72.74-475.187-73.412-474.837-73.886z"/>
	</g>
	<g>
		<path fill="#333333" stroke="#333333" stroke-miterlimit="10" d="M-445.826-80.248c0.169-0.225,0.396-0.321,0.679-0.29
			l11.155,0.869c0.221,0.008,0.402,0.093,0.542,0.255c0.139,0.162,0.198,0.349,0.176,0.559c-0.008,0.222-0.096,0.406-0.263,0.553
			c-0.168,0.147-0.357,0.209-0.567,0.187l-9.975-0.782l3.167,8.925c0.068,0.211,0.06,0.415-0.026,0.612s-0.238,0.327-0.456,0.39
			c-0.264,0.108-0.508,0.078-0.733-0.092c-0.116-0.088-0.206-0.218-0.269-0.39l-3.559-10.057
			C-446.061-79.748-446.018-79.994-445.826-80.248z"/>
		<path fill="#333333" stroke="#333333" stroke-miterlimit="10" d="M-437.695-66.103c0.076-0.199,0.213-0.354,0.411-0.466
			l18.573-8.265c0.196-0.079,0.394-0.078,0.594,0.004c0.2,0.082,0.346,0.227,0.44,0.434c0.09,0.182,0.097,0.372,0.022,0.571
			c-0.076,0.199-0.22,0.349-0.433,0.45l-18.564,8.254c-0.275,0.123-0.532,0.094-0.771-0.087c-0.102-0.077-0.19-0.178-0.266-0.303
			C-437.769-65.707-437.771-65.904-437.695-66.103z"/>
		<path fill="#333333" stroke="#333333" stroke-miterlimit="10" d="M-417.576-67.015c0.196-0.079,0.391-0.074,0.586,0.015
			c0.194,0.09,0.325,0.24,0.394,0.451l3.901,10.486c0.108,0.264,0.078,0.508-0.092,0.733c-0.192,0.254-0.416,0.363-0.674,0.328
			l-10.648-0.658c-0.184-0.013-0.333-0.064-0.449-0.151c-0.225-0.17-0.322-0.396-0.29-0.679c0.001-0.227,0.084-0.409,0.249-0.546
			s0.359-0.201,0.581-0.193l9.452,0.592l-3.493-9.376c-0.08-0.197-0.072-0.395,0.023-0.597
			C-417.941-66.812-417.788-66.947-417.576-67.015z"/>
	</g>
</g>
</svg>
