<?xml version="1.0" encoding="utf-8"?>
<!-- Generator: Adobe Illustrator 17.0.2, SVG Export Plug-In . SVG Version: 6.00 Build 0)  -->
<!DOCTYPE svg PUBLIC "-//W3C//DTD SVG 1.1//EN" "http://www.w3.org/Graphics/SVG/1.1/DTD/svg11.dtd">
<svg version="1.1" id="Layer_1" xmlns="http://www.w3.org/2000/svg" xmlns:xlink="http://www.w3.org/1999/xlink" x="0px" y="0px"
	 width="117.44px" height="149.85px" viewBox="26.09 83.557 117.44 149.85" enable-background="new 26.09 83.557 117.44 149.85"
	 xml:space="preserve">
<g>
	<g>
		<g>
			<path fill="#333333" stroke="#333333" stroke-width="3.0511" stroke-linejoin="round" stroke-miterlimit="10" d="
				M122.642,213.148c0,0-12.031,16.733-21.544,16.733c-5.081,0-10.156-4.115-13.755-16.731l0.623,0.342c0,0,8.785,3.131,26.35-6.952
				L122.642,213.148z"/>
			<path fill="#333333" stroke="#333333" stroke-width="3.0511" stroke-linejoin="round" stroke-miterlimit="10" d="M86.77,213.492
				l0.573-0.342c-3.599,12.616-8.668,16.731-13.743,16.731c-9.495,0-23.228-16.733-23.228-16.733l11.185-7.656
				C79.129,215.576,86.77,213.492,86.77,213.492z"/>
		</g>
		
			<path fill="none" stroke="#333333" stroke-width="3.0511" stroke-linecap="round" stroke-linejoin="round" stroke-miterlimit="10" d="
			M56.292,207.545c0,0-13.489,8.749-16.515,20.545"/>
		
			<path fill="none" stroke="#333333" stroke-width="3.0511" stroke-linecap="round" stroke-linejoin="round" stroke-miterlimit="10" d="
			M115.809,206.54c0,0,14.343,9.753,17.369,21.55"/>
	</g>
	<path fill="#FFFFFF" stroke="#333333" stroke-width="3.0511" stroke-linecap="round" stroke-miterlimit="10" d="M63.713,119.658
		c3.834-17.923-41.843-31.014-32.947-24.643c2.43,1.739,4.907,4.318,5.873,7.186c0.61,1.803,0.76,3.895,0.668,5.781
		c-0.333,6.823-3.447,15.198,3.297,20.046c1.827,1.315,4.078,2.264,6.327,2.536"/>
	<path fill="#FFFFFF" stroke="#333333" stroke-width="3.0511" stroke-linecap="round" stroke-miterlimit="10" d="M127.534,129.304
		c17.676-4.85,8.26-51.424,6.701-40.594c-0.425,2.958-1.573,6.344-3.674,8.524c-1.319,1.372-3.108,2.468-4.823,3.256
		c-6.21,2.848-15.078,3.939-16.275,12.158c-0.325,2.226-0.131,4.662,0.662,6.785"/>
	<path fill="#FFFFFF" stroke="#333333" stroke-width="3.0511" stroke-miterlimit="10" d="M140.006,162.636
		c0,29.779-24.14,53.919-53.919,53.919c-10.458,0-20.221-2.978-28.487-8.131c-15.271-9.521-25.432-26.468-25.432-45.789
		c0-29.779,24.14-53.919,53.919-53.919S140.006,132.857,140.006,162.636z"/>
	
		<ellipse fill="#FFFFFF" stroke="#333333" stroke-width="3.0511" stroke-miterlimit="10" cx="86.087" cy="177.109" rx="23.071" ry="15.626"/>
	<g>
		<g>
			<path fill="#333333" stroke="#333333" stroke-width="2.0341" stroke-miterlimit="10" d="M113.731,113.763
				c0.253-1.775,1.844-3.782,3.534-4.462c1.691-0.68,4.908-1.972,7.149-2.87l4.054-1.626c2.24-0.899,3.386,0.218,2.547,2.48
				l-1.625,4.38c-0.84,2.263-1.385,6.084-1.212,8.491l0.336,4.659c0.173,2.407-1.239,3.158-3.139,1.669l-3.437-2.694
				c-1.899-1.489-4.627-3.628-6.06-4.754C114.445,117.909,113.478,115.537,113.731,113.763z"/>
			
				<path fill="#333333" stroke="#333333" stroke-width="2.0341" stroke-linecap="round" stroke-linejoin="round" stroke-miterlimit="10" d="
				M113.731,113.763c0.253-1.775,1.844-3.782,3.534-4.462c1.691-0.68,4.908-1.972,7.149-2.87l4.054-1.626
				c2.24-0.899,3.386,0.218,2.547,2.48l-1.625,4.38c-0.84,2.263-1.385,6.084-1.212,8.491l0.336,4.659
				c0.173,2.407-1.239,3.158-3.139,1.669l-3.437-2.694c-1.899-1.489-4.627-3.628-6.06-4.754
				C114.445,117.909,113.478,115.537,113.731,113.763z"/>
		</g>
		<g>
			<path fill="#333333" stroke="#333333" stroke-width="2.0341" stroke-miterlimit="10" d="M105.82,113.488
				c-0.253,1.775-1.843,3.783-3.533,4.462c-1.691,0.679-4.907,1.972-7.148,2.87l-4.054,1.627c-2.24,0.899-3.385-0.217-2.547-2.48
				l1.625-4.38c0.84-2.263,1.384-6.084,1.211-8.491l-0.336-4.659c-0.173-2.407,1.239-3.158,3.139-1.669l3.437,2.695
				c1.899,1.489,4.627,3.628,6.059,4.754C105.106,109.34,106.073,111.713,105.82,113.488z"/>
			
				<path fill="#333333" stroke="#333333" stroke-width="2.0341" stroke-linecap="round" stroke-linejoin="round" stroke-miterlimit="10" d="
				M105.82,113.488c-0.253,1.775-1.843,3.783-3.533,4.462c-1.691,0.679-4.907,1.972-7.148,2.87l-4.054,1.627
				c-2.24,0.899-3.385-0.217-2.547-2.48l1.625-4.38c0.84-2.263,1.384-6.084,1.211-8.491l-0.336-4.659
				c-0.173-2.407,1.239-3.158,3.139-1.669l3.437,2.695c1.899,1.489,4.627,3.628,6.059,4.754
				C105.106,109.34,106.073,111.713,105.82,113.488z"/>
		</g>
		
			<path fill="#333333" stroke="#333333" stroke-width="2.0341" stroke-linecap="round" stroke-linejoin="round" stroke-miterlimit="10" d="
			M114.932,115.27c-0.279,2.288-2.361,3.916-4.65,3.636l-2.464-0.301c-2.288-0.28-3.916-2.363-3.637-4.649l0.3-2.465
			c0.281-2.288,2.362-3.919,4.651-3.638l2.465,0.302c2.29,0.279,3.919,2.361,3.638,4.65L114.932,115.27z"/>
	</g>
	
		<ellipse fill="#333333" stroke="#333333" stroke-width="2.0341" stroke-miterlimit="10" cx="68.262" cy="143.187" rx="2.648" ry="3.31"/>
	
		<ellipse fill="#333333" stroke="#333333" stroke-width="2.0341" stroke-miterlimit="10" cx="102.197" cy="143.187" rx="2.648" ry="3.31"/>
	
		<ellipse fill="#333333" stroke="#333333" stroke-width="2.0341" stroke-miterlimit="10" cx="80.055" cy="177.087" rx="1.832" ry="4.069"/>
	<g>
		
			<path fill="none" stroke="#333333" stroke-width="2.0341" stroke-linecap="round" stroke-linejoin="round" stroke-miterlimit="10" d="
			M100.832,196.505c0,0,11.512,3.219,15.01-9.657"/>
		
			<path fill="none" stroke="#333333" stroke-width="2.0341" stroke-linecap="round" stroke-linejoin="round" stroke-miterlimit="10" d="
			M113.568,183.092c0,0,2.725,7.576,7.159,3.756"/>
	</g>
	
		<ellipse fill="#333333" stroke="#333333" stroke-width="2.0341" stroke-miterlimit="10" cx="91.552" cy="177.087" rx="1.832" ry="4.069"/>
	<path fill="#333333" d="M138.35,133.232c-0.956-2.912-4.875-2.931-7.354-3.326c-4.01-0.636-8.132-0.352-12.179-0.475
		c-6.818-0.203-13.642,0.395-20.269,2.061c-3.986,1.006-8.613,2.03-12.728,1.9c-2.468-0.074-4.807-0.648-7.022-1.167
		c-11.525-2.684-23.267-4.097-35.076-2.708c-2.153,0.253-9.489-0.111-10.112,2.881c-0.678,3.245,1.598,4.738,2.968,7.169
		c0.71,1.259,1.105,2.628,1.364,4.042c0.537,2.968,0.401,6.034,1.221,8.959c1.185,4.233,4.523,8.477,8.706,10.044
		c2.949,1.111,6.547,1.314,9.674,1.228c18.701-0.487,23.563-15.456,24.587-21.15c0.549-3.054,2.123-3.368,3.881-3.412
		c3.116-0.086,3.473,2.191,4.016,3.573c6.41,16.202,10.267,19.892,23.717,21.064c6.016,0.525,12.476-0.161,16.042-5.535
		c2.764-4.177,2.832-8.459,3.795-13.16c0.278-1.326,0.759-2.555,1.419-3.733C136.351,139.051,139.381,136.367,138.35,133.232z
		 M76.725,146.528c-2.863,8.44-7.348,14.573-18.874,14.882c-11.414,0-14.728-2.079-16.245-15.37c0-8.921-0.586-14.142,16.344-14.11
		C69.364,133.029,81.334,132.918,76.725,146.528z M130.712,146.041c-1.517,13.29-4.831,15.37-16.245,15.37
		c-11.525-0.308-16.011-6.435-18.874-14.882c-4.609-13.611,7.36-13.5,18.775-14.591C131.298,131.9,130.712,137.126,130.712,146.041z
		"/>
</g>
</svg>
