<?xml version="1.0" encoding="utf-8"?>
<!-- Generator: Adobe Illustrator 17.0.2, SVG Export Plug-In . SVG Version: 6.00 Build 0)  -->
<!DOCTYPE svg PUBLIC "-//W3C//DTD SVG 1.1//EN" "http://www.w3.org/Graphics/SVG/1.1/DTD/svg11.dtd">
<svg version="1.1" id="Layer_1" xmlns="http://www.w3.org/2000/svg" xmlns:xlink="http://www.w3.org/1999/xlink" x="0px" y="0px"
	 width="201.8px" height="267.9px" viewBox="-16.09 -1.002 201.8 267.9" enable-background="new -16.09 -1.002 201.8 267.9"
	 xml:space="preserve">
<g>
	<g>
		<g>
			<path fill="#333333" stroke="#333333" stroke-width="3.628" stroke-linejoin="round" stroke-miterlimit="10" d="M129.795,239.985
				c0,0-14.305,19.897-25.617,19.897c-6.042,0-12.076-4.893-16.356-19.895l0.741,0.406c0,0,10.446,3.724,31.333-8.267
				L129.795,239.985z"/>
			<path fill="#333333" stroke="#333333" stroke-width="3.628" stroke-linejoin="round" stroke-miterlimit="10" d="M87.141,240.393
				l0.681-0.406c-4.28,15.002-10.307,19.895-16.342,19.895c-11.29,0-27.62-19.897-27.62-19.897l13.3-9.104
				C78.055,242.871,87.141,240.393,87.141,240.393z"/>
		</g>
		
			<path fill="none" stroke="#333333" stroke-width="3.628" stroke-linecap="round" stroke-linejoin="round" stroke-miterlimit="10" d="
			M50.9,233.321c0,0-16.039,10.403-19.637,24.43"/>
		
			<path fill="none" stroke="#333333" stroke-width="3.628" stroke-linecap="round" stroke-linejoin="round" stroke-miterlimit="10" d="
			M121.67,232.126c0,0,17.055,11.598,20.653,25.625"/>
	</g>
	<path fill="#FFFFFF" stroke="#333333" stroke-width="3.628" stroke-linecap="round" stroke-miterlimit="10" d="M59.724,128.817
		c4.559-21.312-49.755-36.878-39.176-29.302c2.889,2.068,5.835,5.135,6.984,8.545c0.726,2.144,0.903,4.632,0.795,6.874
		c-0.395,8.113-4.098,18.071,3.921,23.836c2.172,1.564,4.849,2.692,7.523,3.016"/>
	<path fill="#FFFFFF" stroke="#333333" stroke-width="3.628" stroke-linecap="round" stroke-miterlimit="10" d="M135.612,140.287
		c21.018-5.767,9.822-61.147,7.968-48.269c-0.505,3.517-1.871,7.544-4.368,10.135c-1.569,1.631-3.696,2.935-5.735,3.871
		c-7.384,3.386-17.928,4.684-19.352,14.456c-0.387,2.647-0.156,5.544,0.787,8.067"/>
	<path fill="#FFFFFF" stroke="#333333" stroke-width="3.628" stroke-miterlimit="10" d="M150.442,179.922
		c0,35.409-28.705,64.114-64.114,64.114c-12.436,0-24.044-3.541-33.874-9.669c-18.158-11.321-30.241-31.473-30.241-54.447
		c0-35.409,28.705-64.114,64.114-64.114S150.442,144.512,150.442,179.922z"/>
	
		<ellipse fill="#FFFFFF" stroke="#333333" stroke-width="3.628" stroke-miterlimit="10" cx="86.328" cy="197.13" rx="27.433" ry="18.58"/>
	<g>
		<g>
			<path fill="#333333" stroke="#333333" stroke-width="2.4187" stroke-miterlimit="10" d="M119.199,121.808
				c0.301-2.11,2.193-4.498,4.202-5.305c2.011-0.809,5.836-2.345,8.5-3.413l4.82-1.934c2.663-1.069,4.026,0.259,3.028,2.948
				l-1.933,5.209c-0.999,2.691-1.647,7.234-1.442,10.097l0.399,5.54c0.206,2.863-1.473,3.755-3.732,1.985l-4.086-3.204
				c-2.258-1.77-5.501-4.314-7.205-5.652C120.048,126.737,118.898,123.917,119.199,121.808z"/>
			
				<path fill="#333333" stroke="#333333" stroke-width="2.4187" stroke-linecap="round" stroke-linejoin="round" stroke-miterlimit="10" d="
				M119.199,121.808c0.301-2.11,2.193-4.498,4.202-5.305c2.011-0.809,5.836-2.345,8.5-3.413l4.82-1.934
				c2.663-1.069,4.026,0.259,3.028,2.948l-1.933,5.209c-0.999,2.691-1.647,7.234-1.442,10.097l0.399,5.54
				c0.206,2.863-1.473,3.755-3.732,1.985l-4.086-3.204c-2.258-1.77-5.501-4.314-7.205-5.652
				C120.048,126.737,118.898,123.917,119.199,121.808z"/>
		</g>
		<g>
			<path fill="#333333" stroke="#333333" stroke-width="2.4187" stroke-miterlimit="10" d="M109.793,121.48
				c-0.301,2.11-2.191,4.499-4.201,5.305c-2.011,0.808-5.835,2.345-8.499,3.413l-4.82,1.935c-2.663,1.069-4.025-0.258-3.028-2.948
				l1.933-5.209c0.999-2.691,1.646-7.234,1.44-10.097l-0.399-5.54c-0.206-2.863,1.473-3.755,3.732-1.985l4.086,3.205
				c2.258,1.77,5.501,4.314,7.204,5.652C108.944,116.549,110.094,119.37,109.793,121.48z"/>
			
				<path fill="#333333" stroke="#333333" stroke-width="2.4187" stroke-linecap="round" stroke-linejoin="round" stroke-miterlimit="10" d="
				M109.793,121.48c-0.301,2.11-2.191,4.499-4.201,5.305c-2.011,0.808-5.835,2.345-8.499,3.413l-4.82,1.935
				c-2.663,1.069-4.025-0.258-3.028-2.948l1.933-5.209c0.999-2.691,1.646-7.234,1.44-10.097l-0.399-5.54
				c-0.206-2.863,1.473-3.755,3.732-1.985l4.086,3.205c2.258,1.77,5.501,4.314,7.204,5.652
				C108.944,116.549,110.094,119.37,109.793,121.48z"/>
		</g>
		
			<path fill="#333333" stroke="#333333" stroke-width="2.4187" stroke-linecap="round" stroke-linejoin="round" stroke-miterlimit="10" d="
			M120.627,123.599c-0.331,2.721-2.807,4.656-5.529,4.323l-2.93-0.358c-2.721-0.333-4.656-2.809-4.325-5.528l0.357-2.931
			c0.334-2.721,2.808-4.66,5.53-4.326l2.931,0.359c2.723,0.331,4.66,2.807,4.326,5.529L120.627,123.599z"/>
	</g>
	
		<ellipse fill="#333333" stroke="#333333" stroke-width="2.4187" stroke-miterlimit="10" cx="65.133" cy="156.795" rx="3.149" ry="3.936"/>
	
		<ellipse fill="#333333" stroke="#333333" stroke-width="2.4187" stroke-miterlimit="10" cx="105.484" cy="156.795" rx="3.149" ry="3.936"/>
	
		<ellipse fill="#333333" stroke="#333333" stroke-width="2.4187" stroke-miterlimit="10" cx="79.155" cy="197.105" rx="2.178" ry="4.839"/>
	<g>
		
			<path fill="none" stroke="#333333" stroke-width="2.4187" stroke-linecap="round" stroke-linejoin="round" stroke-miterlimit="10" d="
			M103.861,220.194c0,0,13.688,3.828,17.849-11.483"/>
		
			<path fill="none" stroke="#333333" stroke-width="2.4187" stroke-linecap="round" stroke-linejoin="round" stroke-miterlimit="10" d="
			M119.006,204.245c0,0,3.24,9.008,8.513,4.466"/>
	</g>
	
		<ellipse fill="#333333" stroke="#333333" stroke-width="2.4187" stroke-miterlimit="10" cx="92.827" cy="197.105" rx="2.178" ry="4.839"/>
	<path fill="#333333" d="M148.473,144.958c-1.137-3.462-5.796-3.485-8.745-3.955c-4.768-0.756-9.67-0.418-14.482-0.565
		c-8.107-0.242-16.221,0.469-24.101,2.45c-4.739,1.196-10.242,2.414-15.135,2.259c-2.935-0.088-5.715-0.77-8.349-1.387
		c-13.704-3.191-27.666-4.871-41.708-3.22c-2.56,0.301-11.283-0.132-12.024,3.426c-0.807,3.859,1.9,5.634,3.529,8.525
		c0.844,1.497,1.313,3.125,1.622,4.806c0.639,3.529,0.476,7.175,1.452,10.653c1.409,5.033,5.378,10.08,10.352,11.943
		c3.507,1.321,7.785,1.562,11.503,1.46c22.237-0.579,28.018-18.378,29.236-25.149c0.653-3.632,2.524-4.005,4.615-4.057
		c3.705-0.103,4.13,2.605,4.776,4.248c7.622,19.266,12.208,23.653,28.202,25.047c7.153,0.624,14.835-0.191,19.075-6.581
		c3.287-4.967,3.368-10.058,4.512-15.649c0.33-1.577,0.902-3.038,1.687-4.438C146.096,151.877,149.698,148.686,148.473,144.958z
		 M75.196,160.768c-3.404,10.036-8.737,17.329-22.443,17.696c-13.572,0-17.512-2.472-19.317-18.276
		c0-10.608-0.697-16.816,19.434-16.778C66.444,144.717,80.677,144.585,75.196,160.768z M139.391,160.189
		c-1.804,15.802-5.744,18.276-19.317,18.276c-13.704-0.366-19.039-7.651-22.443-17.696c-5.481-16.185,8.752-16.053,22.324-17.35
		C140.088,143.374,139.391,149.588,139.391,160.189z"/>
</g>
<g>
	<g>
		
			<rect x="-517.325" y="-46.609" transform="matrix(-0.943 -0.3329 0.3329 -0.943 -992.2869 -205.3784)" fill="none" stroke="#333333" stroke-width="2.6" stroke-linecap="round" stroke-linejoin="round" stroke-miterlimit="10" width="7.176" height="57.848"/>
		
			<polygon fill="none" stroke="#333333" stroke-width="2.6" stroke-linecap="round" stroke-linejoin="round" stroke-miterlimit="10" points="
			-526.805,8.559 -520.038,10.948 -526.766,19.227 		"/>
		
			<rect x="-506.792" y="-50.229" transform="matrix(0.943 0.3329 -0.3329 0.943 -44.5179 164.8004)" fill="none" stroke="#333333" stroke-width="2.6" stroke-linecap="round" stroke-linejoin="round" stroke-miterlimit="10" width="7.176" height="5.42"/>
	</g>
	<path fill="none" stroke="#333333" stroke-width="3" stroke-linecap="round" stroke-linejoin="round" stroke-miterlimit="10" d="
		M-332.103,9.298c0.421,1.588-0.526,3.217-2.114,3.637l-21.089,5.585c-1.588,0.421-3.217-0.526-3.637-2.114l-12.203-46.078
		c-0.421-1.588,0.526-3.217,2.114-3.637l21.089-5.585c1.588-0.421,3.217,0.526,3.637,2.114L-332.103,9.298z"/>
	<path fill="none" stroke="#333333" stroke-width="2" stroke-linecap="round" stroke-linejoin="round" stroke-miterlimit="10" d="
		M-337.626,1.603c0.319,1.203-0.398,2.436-1.601,2.755l-15.972,4.23c-1.203,0.319-2.436-0.398-2.755-1.601l-9.242-34.897
		c-0.319-1.203,0.398-2.436,1.601-2.755l15.972-4.23c1.203-0.319,2.436,0.398,2.755,1.601L-337.626,1.603z"/>
	
		<circle fill="none" stroke="#333333" stroke-linecap="round" stroke-linejoin="round" stroke-miterlimit="10" cx="-346.009" cy="11.017" r="2.988"/>
	<g>
		<path fill="#333333" stroke="#333333" stroke-miterlimit="10" d="M-390.986-69.385l-50.836-37.571
			c-1.307-0.966-3.147-0.685-4.108,0.616l-22.342,30.231c-0.962,1.302-0.692,3.143,0.616,4.109l50.837,37.572
			c1.301,0.962,3.146,0.685,4.109-0.617l22.343-30.231C-389.408-66.578-389.684-68.423-390.986-69.385z M-414.21-36.153
			c-0.351,0.475-1.022,0.581-1.502,0.227l-50.837-37.572c-0.48-0.354-0.575-1.028-0.224-1.502l22.343-30.231
			c0.35-0.474,1.022-0.579,1.501-0.225l50.837,37.572c0.48,0.355,0.575,1.028,0.225,1.501L-414.21-36.153z"/>
		<path fill="#333333" stroke="#333333" stroke-miterlimit="10" d="M-407.679-22.918l-4.537-3.353
			c0.303-0.184,0.579-0.433,0.805-0.738l29.105-39.381c0.962-1.301,0.685-3.146-0.616-4.108l-60.201-44.492
			c-1.301-0.962-3.148-0.685-4.109,0.616l-29.105,39.38c-0.226,0.305-0.383,0.643-0.468,0.987l-4.538-3.354
			c-0.414-0.306-0.993-0.224-1.303,0.196c-2.242,3.034,0.895,8.885,7.304,13.622l52.695,38.945
			c6.408,4.736,12.922,6.017,15.164,2.983C-407.173-22.034-407.264-22.611-407.679-22.918z M-421.539-26.097l-52.696-38.945
			c-4.952-3.66-7.502-7.862-7.252-10.107l5.768,4.263l22.955,16.964c-0.108,0.711,0.169,1.451,0.793,1.912l11.438,8.454
			c0.623,0.461,1.413,0.508,2.06,0.196l22.955,16.965l5.767,4.262C-411.823-21.233-416.588-22.437-421.539-26.097z M-474.837-73.886
			l29.105-39.38c0.35-0.474,1.022-0.579,1.501-0.225l60.201,44.492c0.48,0.354,0.575,1.028,0.225,1.501l-29.105,39.381
			c-0.351,0.474-1.021,0.578-1.5,0.224l-60.201-44.492C-475.091-72.74-475.187-73.412-474.837-73.886z"/>
	</g>
	<g>
		<path fill="#333333" stroke="#333333" stroke-miterlimit="10" d="M-445.826-80.248c0.169-0.225,0.396-0.321,0.679-0.29
			l11.155,0.869c0.221,0.008,0.402,0.093,0.542,0.255c0.139,0.162,0.198,0.349,0.176,0.559c-0.008,0.222-0.096,0.406-0.263,0.553
			c-0.168,0.147-0.357,0.209-0.567,0.187l-9.975-0.782l3.167,8.925c0.068,0.211,0.06,0.415-0.026,0.612s-0.238,0.327-0.456,0.39
			c-0.264,0.108-0.508,0.078-0.733-0.092c-0.116-0.088-0.206-0.218-0.269-0.39l-3.559-10.057
			C-446.061-79.748-446.018-79.994-445.826-80.248z"/>
		<path fill="#333333" stroke="#333333" stroke-miterlimit="10" d="M-437.695-66.103c0.076-0.199,0.213-0.354,0.411-0.466
			l18.573-8.265c0.196-0.079,0.394-0.078,0.594,0.004c0.2,0.082,0.346,0.227,0.44,0.434c0.09,0.182,0.097,0.372,0.022,0.571
			c-0.076,0.199-0.22,0.349-0.433,0.45l-18.564,8.254c-0.275,0.123-0.532,0.094-0.771-0.087c-0.102-0.077-0.19-0.178-0.266-0.303
			C-437.769-65.707-437.771-65.904-437.695-66.103z"/>
		<path fill="#333333" stroke="#333333" stroke-miterlimit="10" d="M-417.576-67.015c0.196-0.079,0.391-0.074,0.586,0.015
			c0.194,0.09,0.325,0.24,0.394,0.451l3.901,10.486c0.108,0.264,0.078,0.508-0.092,0.733c-0.192,0.254-0.416,0.363-0.674,0.328
			l-10.648-0.658c-0.184-0.013-0.333-0.064-0.449-0.151c-0.225-0.17-0.322-0.396-0.29-0.679c0.001-0.227,0.084-0.409,0.249-0.546
			s0.359-0.201,0.581-0.193l9.452,0.592l-3.493-9.376c-0.08-0.197-0.072-0.395,0.023-0.597
			C-417.941-66.812-417.788-66.947-417.576-67.015z"/>
	</g>
</g>
</svg>
