<?xml version="1.0" encoding="utf-8"?>
<!-- Generator: Adobe Illustrator 17.0.2, SVG Export Plug-In . SVG Version: 6.00 Build 0)  -->
<!DOCTYPE svg PUBLIC "-//W3C//DTD SVG 1.1//EN" "http://www.w3.org/Graphics/SVG/1.1/DTD/svg11.dtd">
<svg version="1.1" id="Layer_1" xmlns="http://www.w3.org/2000/svg" xmlns:xlink="http://www.w3.org/1999/xlink" x="0px" y="0px"
	 width="186.62px" height="265.97px" viewBox="0 0 186.62 265.97" enable-background="new 0 0 186.62 265.97" xml:space="preserve">
<g>
	<g>
		<path fill="#333333" stroke="#333333" stroke-width="2.1477" stroke-linejoin="round" stroke-miterlimit="10" d="M120.988,246.944
			c0,0-11.829,16.453-21.183,16.453c-4.996,0-9.986-4.046-13.525-16.451l0.613,0.336c0,0,8.638,3.079,25.909-6.836L120.988,246.944z
			"/>
		<path fill="#333333" stroke="#333333" stroke-width="2.1477" stroke-linejoin="round" stroke-miterlimit="10" d="M85.717,247.282
			l0.563-0.336c-3.539,12.405-8.523,16.451-13.513,16.451c-9.336,0-22.839-16.453-22.839-16.453l10.998-7.528
			C78.204,249.331,85.717,247.282,85.717,247.282z"/>
	</g>
	
		<path fill="none" stroke="#333333" stroke-width="1.82" stroke-linecap="round" stroke-linejoin="round" stroke-miterlimit="10" d="
		M55.75,241.434c0,0-13.263,8.602-16.238,20.201"/>
	
		<path fill="none" stroke="#333333" stroke-width="1.82" stroke-linecap="round" stroke-linejoin="round" stroke-miterlimit="10" d="
		M114.269,240.446c0,0,14.103,9.59,17.078,21.189"/>
</g>
<g>
	
		<rect x="11.891" y="70.454" transform="matrix(0.943 0.3329 -0.3329 0.943 33.9627 0.5146)" fill="none" stroke="#333333" stroke-width="1.82" stroke-linecap="round" stroke-linejoin="round" stroke-miterlimit="10" width="7.176" height="57.842"/>
	
		<polygon fill="none" stroke="#333333" stroke-width="1.82" stroke-linecap="round" stroke-linejoin="round" stroke-miterlimit="10" points="
		2.409,125.622 9.176,128.011 2.448,136.29 	"/>
	
		<rect x="22.421" y="66.838" transform="matrix(-0.943 -0.3329 0.3329 -0.943 27.3834 143.7874)" fill="none" stroke="#333333" stroke-width="1.82" stroke-linecap="round" stroke-linejoin="round" stroke-miterlimit="10" width="7.176" height="5.42"/>
</g>
<g>
	
		<path fill="none" stroke="#333333" stroke-width="1.82" stroke-linecap="round" stroke-linejoin="round" stroke-miterlimit="10" d="
		M184.111,126.361c0.421,1.588-0.526,3.217-2.114,3.637l-21.089,5.585c-1.588,0.421-3.217-0.526-3.637-2.114l-12.203-46.078
		c-0.421-1.588,0.526-3.217,2.114-3.637l21.089-5.585c1.588-0.421,3.217,0.526,3.637,2.114L184.111,126.361z"/>
	
		<path fill="none" stroke="#333333" stroke-width="1.82" stroke-linecap="round" stroke-linejoin="round" stroke-miterlimit="10" d="
		M178.588,118.666c0.319,1.203-0.398,2.436-1.601,2.755l-15.972,4.23c-1.203,0.319-2.436-0.398-2.755-1.601l-9.242-34.897
		c-0.319-1.203,0.398-2.436,1.601-2.755l15.972-4.23c1.203-0.319,2.436,0.398,2.755,1.601L178.588,118.666z"/>
	
		<circle fill="none" stroke="#333333" stroke-width="1.82" stroke-linecap="round" stroke-linejoin="round" stroke-miterlimit="10" cx="170.205" cy="128.08" r="2.988"/>
</g>
<path fill="#FFFFFF" stroke="#333333" stroke-width="1.82" stroke-linecap="round" stroke-miterlimit="10" d="M63.046,155.02
	c3.77-17.623-41.142-30.494-32.395-24.23c2.389,1.71,4.825,4.246,5.775,7.066c0.6,1.773,0.747,3.83,0.657,5.684
	c-0.327,6.709-3.389,14.943,3.242,19.71c1.796,1.293,4.01,2.226,6.221,2.494"/>
<path fill="#FFFFFF" stroke="#333333" stroke-width="1.82" stroke-linecap="round" stroke-miterlimit="10" d="M125.798,164.504
	c17.38-4.769,8.122-50.562,6.589-39.914c-0.418,2.908-1.547,6.238-3.612,8.381c-1.297,1.349-3.056,2.427-4.742,3.201
	c-6.106,2.8-14.825,3.873-16.002,11.954c-0.32,2.189-0.129,4.584,0.651,6.671"/>
<path fill="#FFFFFF" stroke="#333333" stroke-width="1.82" stroke-miterlimit="10" d="M138.061,197.278
	c0,29.28-23.736,53.016-53.016,53.016c-10.283,0-19.882-2.928-28.01-7.995c-15.015-9.361-25.006-26.025-25.006-45.022
	c0-29.28,23.736-53.016,53.016-53.016S138.061,167.998,138.061,197.278z"/>
<ellipse fill="#FFFFFF" stroke="#333333" stroke-width="1.82" stroke-miterlimit="10" cx="85.045" cy="211.508" rx="22.684" ry="15.364"/>
<g>
	<g>
		<path fill="#333333" stroke="#333333" stroke-width="1.82" stroke-miterlimit="10" d="M112.108,150.048
			c0.614-1.652,2.562-3.248,4.329-3.548c1.767-0.3,5.128-0.868,7.468-1.263l4.235-0.715c2.34-0.395,3.207,0.917,1.928,2.915
			l-2.478,3.869c-1.28,1.998-2.603,5.556-2.94,7.905l-0.652,4.546c-0.337,2.349-1.851,2.775-3.364,0.947l-2.738-3.307
			c-1.513-1.828-3.686-4.453-4.828-5.834C111.927,154.18,111.494,151.699,112.108,150.048z"/>
		
			<path fill="#333333" stroke="#333333" stroke-width="1.82" stroke-linecap="round" stroke-linejoin="round" stroke-miterlimit="10" d="
			M112.108,150.048c0.614-1.652,2.562-3.248,4.329-3.548c1.767-0.3,5.128-0.868,7.468-1.263l4.235-0.715
			c2.34-0.395,3.207,0.917,1.928,2.915l-2.478,3.869c-1.28,1.998-2.603,5.556-2.94,7.905l-0.652,4.546
			c-0.337,2.349-1.851,2.775-3.364,0.947l-2.738-3.307c-1.513-1.828-3.686-4.453-4.828-5.834
			C111.927,154.18,111.494,151.699,112.108,150.048z"/>
	</g>
	<g>
		<path fill="#333333" stroke="#333333" stroke-width="1.82" stroke-miterlimit="10" d="M104.566,148.129
			c-0.614,1.652-2.562,3.249-4.328,3.548c-1.767,0.299-5.127,0.868-7.467,1.263l-4.235,0.716c-2.34,0.395-3.207-0.916-1.928-2.915
			l2.478-3.869c1.28-1.999,2.602-5.556,2.939-7.905l0.652-4.546c0.337-2.349,1.85-2.775,3.364-0.947l2.738,3.308
			c1.513,1.828,3.686,4.453,4.827,5.834C104.747,143.995,105.18,146.477,104.566,148.129z"/>
		
			<path fill="#333333" stroke="#333333" stroke-width="1.82" stroke-linecap="round" stroke-linejoin="round" stroke-miterlimit="10" d="
			M104.566,148.129c-0.614,1.652-2.562,3.249-4.328,3.548c-1.767,0.299-5.127,0.868-7.467,1.263l-4.235,0.716
			c-2.34,0.395-3.207-0.916-1.928-2.915l2.478-3.869c1.28-1.999,2.602-5.556,2.939-7.905l0.652-4.546
			c0.337-2.349,1.85-2.775,3.364-0.947l2.738,3.308c1.513,1.828,3.686,4.453,4.827,5.834
			C104.747,143.995,105.18,146.477,104.566,148.129z"/>
	</g>
	
		<path fill="#333333" stroke="#333333" stroke-width="1.82" stroke-linecap="round" stroke-linejoin="round" stroke-miterlimit="10" d="
		M112.947,151.746c-0.746,2.14-3.087,3.268-5.228,2.521l-2.305-0.805c-2.14-0.747-3.268-3.089-2.522-5.227l0.804-2.306
		c0.748-2.14,3.088-3.271,5.229-2.523l2.305,0.806c2.142,0.747,3.271,3.087,2.523,5.228L112.947,151.746z"/>
</g>
<ellipse fill="#333333" stroke="#333333" stroke-width="1.2133" stroke-miterlimit="10" cx="67.519" cy="178.155" rx="2.604" ry="3.255"/>
<ellipse fill="#333333" stroke="#333333" stroke-width="1.2133" stroke-miterlimit="10" cx="100.885" cy="178.155" rx="2.604" ry="3.255"/>
<ellipse fill="#333333" stroke="#333333" stroke-width="0.6067" stroke-miterlimit="10" cx="79.114" cy="211.487" rx="1.801" ry="4.001"/>
<g>
	
		<path fill="none" stroke="#333333" stroke-width="1.82" stroke-linecap="round" stroke-linejoin="round" stroke-miterlimit="10" d="
		M99.543,230.579c0,0,11.319,3.165,14.759-9.495"/>
	
		<path fill="none" stroke="#333333" stroke-width="1.82" stroke-linecap="round" stroke-linejoin="round" stroke-miterlimit="10" d="
		M112.066,217.391c0,0,2.679,7.449,7.039,3.693"/>
</g>
<ellipse fill="#333333" stroke="#333333" stroke-width="0.6067" stroke-miterlimit="10" cx="90.419" cy="211.487" rx="1.801" ry="4.001"/>
<path fill="#333333" stroke="#333333" stroke-width="0.6067" stroke-miterlimit="10" d="M136.433,168.367
	c-0.94-2.863-4.793-2.882-7.231-3.27c-3.943-0.625-7.996-0.346-11.975-0.467c-6.704-0.2-13.413,0.388-19.929,2.026
	c-3.919,0.989-8.469,1.996-12.515,1.868c-2.427-0.073-4.726-0.637-6.904-1.147c-11.332-2.639-22.877-4.028-34.488-2.663
	c-2.117,0.249-9.33-0.109-9.943,2.833c-0.667,3.191,1.571,4.659,2.918,7.049c0.698,1.238,1.086,2.584,1.341,3.974
	c0.528,2.918,0.394,5.933,1.201,8.809c1.165,4.162,4.447,8.335,8.56,9.876c2.9,1.092,6.437,1.292,9.512,1.207
	c18.388-0.479,23.168-15.197,24.175-20.796c0.54-3.003,2.087-3.312,3.816-3.355c3.064-0.085,3.415,2.154,3.949,3.513
	c6.303,15.931,10.095,19.559,23.32,20.711c5.915,0.516,12.267-0.158,15.773-5.442c2.718-4.107,2.785-8.317,3.731-12.94
	c0.273-1.304,0.746-2.512,1.395-3.67C134.467,174.088,137.446,171.449,136.433,168.367z M75.84,181.44
	c-2.815,8.299-7.225,14.329-18.558,14.633c-11.223,0-14.481-2.044-15.973-15.112c0-8.772-0.576-13.905,16.07-13.874
	C68.603,168.167,80.372,168.058,75.84,181.44z M128.923,180.961c-1.492,13.067-4.75,15.112-15.973,15.112
	c-11.332-0.303-15.743-6.327-18.558-14.633c-4.532-13.383,7.237-13.274,18.46-14.347
	C129.499,167.057,128.923,172.195,128.923,180.961z"/>
<g>
	<g>
		<path fill="#333333" d="M133.228,47.678L82.392,10.107c-1.307-0.966-3.147-0.685-4.108,0.616L55.942,40.954
			c-0.962,1.302-0.692,3.143,0.616,4.109l50.837,37.572c1.301,0.962,3.146,0.685,4.109-0.617l22.343-30.231
			C134.806,50.485,134.53,48.64,133.228,47.678z M110.004,80.91c-0.351,0.475-1.022,0.581-1.502,0.227L57.665,43.565
			c-0.48-0.354-0.575-1.028-0.224-1.502l22.343-30.231c0.35-0.474,1.022-0.579,1.501-0.225l50.837,37.572
			c0.48,0.355,0.575,1.028,0.225,1.501L110.004,80.91z"/>
		<path fill="#333333" d="M116.535,94.145l-4.537-3.353c0.303-0.184,0.579-0.433,0.805-0.738l29.105-39.381
			c0.962-1.301,0.685-3.146-0.616-4.108L81.091,2.073c-1.301-0.962-3.148-0.685-4.109,0.616L47.877,42.069
			c-0.226,0.305-0.383,0.643-0.468,0.987l-4.538-3.354c-0.414-0.306-0.993-0.224-1.303,0.196c-2.242,3.034,0.895,8.885,7.304,13.622
			l52.695,38.945c6.408,4.736,12.922,6.017,15.164,2.983C117.041,95.029,116.95,94.452,116.535,94.145z M102.675,90.966
			L49.979,52.021c-4.952-3.66-7.502-7.862-7.252-10.107l5.768,4.263L71.45,63.141c-0.108,0.711,0.169,1.451,0.793,1.912
			l11.438,8.454c0.623,0.461,1.413,0.508,2.06,0.196l22.955,16.965l5.767,4.262C112.391,95.83,107.626,94.626,102.675,90.966z
			 M49.377,43.177l29.105-39.38c0.35-0.474,1.022-0.579,1.501-0.225l60.201,44.492c0.48,0.354,0.575,1.028,0.225,1.501
			l-29.105,39.381c-0.351,0.474-1.021,0.578-1.5,0.224L49.603,44.678C49.123,44.323,49.027,43.651,49.377,43.177z"/>
	</g>
	<g>
		<path stroke="#333333" stroke-width="0.6067" stroke-miterlimit="10" d="M78.388,36.815c0.169-0.225,0.396-0.321,0.679-0.29
			l11.155,0.869c0.221,0.008,0.402,0.093,0.542,0.255c0.139,0.162,0.198,0.349,0.176,0.559c-0.008,0.222-0.096,0.406-0.263,0.553
			c-0.168,0.147-0.357,0.209-0.567,0.187l-9.975-0.782l3.167,8.925c0.068,0.211,0.06,0.415-0.026,0.612
			c-0.086,0.197-0.238,0.327-0.456,0.39c-0.264,0.108-0.508,0.078-0.733-0.092c-0.116-0.088-0.206-0.218-0.269-0.39l-3.559-10.057
			C78.153,37.315,78.196,37.069,78.388,36.815z"/>
		<path stroke="#333333" stroke-width="0.6067" stroke-miterlimit="10" d="M86.519,50.96c0.076-0.199,0.213-0.354,0.411-0.466
			l18.573-8.265c0.196-0.079,0.394-0.078,0.594,0.004c0.2,0.082,0.346,0.227,0.44,0.434c0.09,0.182,0.097,0.372,0.022,0.571
			c-0.076,0.199-0.22,0.349-0.433,0.45l-18.564,8.254c-0.275,0.123-0.532,0.094-0.771-0.087c-0.102-0.077-0.19-0.178-0.266-0.303
			C86.445,51.356,86.443,51.159,86.519,50.96z"/>
		<path stroke="#333333" stroke-width="0.6067" stroke-miterlimit="10" d="M106.638,50.048c0.196-0.079,0.391-0.074,0.586,0.015
			c0.194,0.09,0.325,0.24,0.394,0.451L111.519,61c0.108,0.264,0.078,0.508-0.092,0.733c-0.192,0.254-0.416,0.363-0.674,0.328
			l-10.648-0.658c-0.184-0.013-0.333-0.064-0.449-0.151c-0.225-0.17-0.322-0.396-0.29-0.679c0.001-0.227,0.084-0.409,0.249-0.546
			c0.165-0.137,0.359-0.201,0.581-0.193l9.452,0.592l-3.493-9.376c-0.08-0.197-0.072-0.395,0.023-0.597
			C106.273,50.251,106.426,50.116,106.638,50.048z"/>
	</g>
</g>
</svg>
