<?xml version="1.0" encoding="utf-8"?>
<!-- Generator: Adobe Illustrator 17.0.2, SVG Export Plug-In . SVG Version: 6.00 Build 0)  -->
<!DOCTYPE svg PUBLIC "-//W3C//DTD SVG 1.1//EN" "http://www.w3.org/Graphics/SVG/1.1/DTD/svg11.dtd">
<svg version="1.1" id="Layer_1" xmlns="http://www.w3.org/2000/svg" xmlns:xlink="http://www.w3.org/1999/xlink" x="0px" y="0px"
	 width="298.525px" height="381.451px" viewBox="0 0 298.525 381.451" enable-background="new 0 0 298.525 381.451"
	 xml:space="preserve">
<circle fill="#3D3D3E" stroke="#3D3D3E" stroke-width="2.0332" stroke-miterlimit="10" cx="95.901" cy="132.327" r="9.002"/>
<circle fill="#3D3D3E" stroke="#3D3D3E" stroke-width="2.0332" stroke-miterlimit="10" cx="201.857" cy="132.739" r="9.001"/>
<ellipse fill="none" stroke="#3D3D3E" stroke-width="13" stroke-miterlimit="10" cx="149.318" cy="230.368" rx="65.164" ry="31.104"/>
<path fill="#6C5947" stroke="#3D3D3E" stroke-width="6.0996" stroke-miterlimit="10" d="M136.27,230.368
	c0,4.733-1.728,8.573-3.858,8.573c-2.13,0-3.857-3.84-3.857-8.573c0-4.738,1.728-8.574,3.857-8.574
	C134.542,221.794,136.27,225.63,136.27,230.368z"/>
<path fill="#6C5947" stroke="#3D3D3E" stroke-width="6.0996" stroke-miterlimit="10" d="M170.141,230.368
	c0,4.733-1.728,8.573-3.859,8.573c-2.135,0-3.86-3.84-3.86-8.573c0-4.738,1.726-8.574,3.86-8.574
	C168.413,221.794,170.141,225.63,170.141,230.368z"/>
<path fill="none" stroke="#3D3D3E" stroke-width="13" stroke-linecap="round" stroke-linejoin="round" stroke-miterlimit="10" d="
	M238.013,141.028c0,15.39-12.48,27.865-27.869,27.865h-16.575c-15.391,0-27.867-12.475-27.867-27.865v-16.577
	c0-15.39,12.477-27.865,27.867-27.865h16.575c15.39,0,27.869,12.475,27.869,27.865V141.028z"/>
<path fill="none" stroke="#3D3D3E" stroke-width="13" stroke-linecap="round" stroke-linejoin="round" stroke-miterlimit="10" d="
	M132.056,140.615c0,15.392-12.477,27.867-27.865,27.867H87.613c-15.388,0-27.867-12.475-27.867-27.867v-16.579
	c0-15.388,12.48-27.863,27.867-27.863h16.577c15.389,0,27.865,12.475,27.865,27.863V140.615z"/>
<path fill="none" stroke="#3D3D3E" stroke-width="13" stroke-linecap="round" stroke-linejoin="round" stroke-miterlimit="10" d="
	M133.424,123.17c0,0,13.667-16.081,31.803,0"/>
<path fill="none" stroke="#3D3D3E" stroke-width="13" stroke-linejoin="round" stroke-miterlimit="10" d="M58.454,132.633
	c0,0-19.613,3.769-33.004-7.38"/>
<path fill="none" stroke="#3D3D3E" stroke-width="13" stroke-linejoin="round" stroke-miterlimit="10" d="M241.949,132.633
	c0,0,19.611,3.769,33.006-7.38"/>
<g>
	<path fill="none" stroke="#3D3D3E" stroke-width="13" stroke-miterlimit="10" d="M292.025,194.501
		c0,78.844-63.919,142.761-142.763,142.761C70.419,337.261,6.5,273.345,6.5,194.501C6.5,115.653,70.419,51.74,149.263,51.74
		C228.107,51.74,292.025,115.653,292.025,194.501z"/>
	<path fill="none" stroke="#3D3D3E" stroke-width="13" stroke-miterlimit="10" d="M215.671,68.105
		c-3.48-11.758,2.832-25.891,14.157-30.371c3.359-1.331,6.922-2.103,10.468-2.732c7.323-1.291,14.972-1.757,21.283-6.13
		c6.342-4.394,10.487-11.778,12.457-19.13c5.982-22.312,14.115,77.643-24.247,83.401"/>
	<path fill="none" stroke="#3D3D3E" stroke-width="13" stroke-miterlimit="10" d="M51.828,88.963
		c-4.748-0.574-9.501-2.577-13.354-5.355c-14.228-10.244-7.637-27.968-6.922-42.405c0.196-3.989-0.115-8.415-1.4-12.229
		c-2.035-6.066-7.261-11.518-12.388-15.193C-1.006,0.319,95.409,27.926,87.278,65.855"/>
</g>
<path fill="none" stroke="#3D3D3E" stroke-width="13" stroke-linecap="round" stroke-linejoin="round" stroke-miterlimit="10" d="
	M44.899,291.904c-11.693,8.121-22.152,17.954-31.179,28.963"/>
<path fill="none" stroke="#3D3D3E" stroke-width="13" stroke-linecap="round" stroke-linejoin="round" stroke-miterlimit="10" d="
	M253.738,291.904c13.994,8.278,25.736,21.16,35.366,34.028"/>
<g>
	<g>
		<path fill="#3D3D3E" d="M231.42,69.212c2.395-4.469,8.572-8.259,13.727-8.423s14.956-0.471,21.781-0.684l12.351-0.384
			c6.825-0.212,8.785,3.866,4.356,9.063l-8.574,10.06c-4.429,5.197-9.59,14.82-11.468,21.385l-3.635,12.703
			c-1.878,6.565-6.36,7.189-9.96,1.386l-6.512-10.498c-3.6-5.802-8.767-14.135-11.483-18.517
			C229.288,80.922,229.025,73.681,231.42,69.212z"/>
		
			<path fill="none" stroke="#3D3D3E" stroke-width="3.0903" stroke-linecap="round" stroke-linejoin="round" stroke-miterlimit="10" d="
			M231.42,69.212c2.395-4.469,8.572-8.259,13.727-8.423s14.956-0.471,21.781-0.684l12.351-0.384
			c6.825-0.212,8.785,3.866,4.356,9.063l-8.574,10.06c-4.429,5.197-9.59,14.82-11.468,21.385l-3.635,12.703
			c-1.878,6.565-6.36,7.189-9.96,1.386l-6.512-10.498c-3.6-5.802-8.767-14.135-11.483-18.517
			C229.288,80.922,229.025,73.681,231.42,69.212z"/>
	</g>
	<g>
		<path fill="#3D3D3E" d="M210.67,60.795c-2.395,4.47-8.572,8.26-13.725,8.423c-5.154,0.163-14.954,0.47-21.779,0.683l-12.351,0.385
			c-6.825,0.213-8.785-3.865-4.356-9.062l8.574-10.061c4.429-5.197,9.589-14.821,11.467-21.385l3.635-12.705
			c1.878-6.565,6.359-7.189,9.958-1.386l6.512,10.499c3.599,5.803,8.766,14.135,11.482,18.517
			C212.802,49.084,213.065,56.326,210.67,60.795z"/>
		
			<path fill="none" stroke="#3D3D3E" stroke-width="3.0903" stroke-linecap="round" stroke-linejoin="round" stroke-miterlimit="10" d="
			M210.67,60.795c-2.395,4.47-8.572,8.26-13.725,8.423c-5.154,0.163-14.954,0.47-21.779,0.683l-12.351,0.385
			c-6.825,0.213-8.785-3.865-4.356-9.062l8.574-10.061c4.429-5.197,9.589-14.821,11.467-21.385l3.635-12.705
			c1.878-6.565,6.359-7.189,9.958-1.386l6.512,10.499c3.599,5.803,8.766,14.135,11.482,18.517
			C212.802,49.084,213.065,56.326,210.67,60.795z"/>
	</g>
	
		<path fill="#3D3D3E" stroke="#3D3D3E" stroke-width="4.5424" stroke-linecap="round" stroke-linejoin="round" stroke-miterlimit="10" d="
		M233.149,74.381c-2.964,5.808-10.078,8.111-15.888,5.145l-6.257-3.195c-5.81-2.966-8.109-10.082-5.146-15.886l3.192-6.258
		c2.969-5.808,10.081-8.117,15.893-5.149l6.255,3.197c5.815,2.967,8.117,10.079,5.148,15.889L233.149,74.381z"/>
</g>
<path fill="#3D3D3E" stroke="#3D3D3E" stroke-width="2" stroke-linejoin="round" stroke-miterlimit="10" d="M153.95,337.256
	c0,0-68.052,0.222-109.052-45.352l-16.95,14.482v0.152c0,0,94.143,143.4,127.039,30.724"/>
<path fill="#3D3D3E" stroke="#3D3D3E" stroke-width="2" stroke-linejoin="round" stroke-miterlimit="10" d="M148.985,337.256
	c0,0,68.052,0.222,109.052-45.352l16.95,14.482v0.152c0,0-94.143,143.4-127.039,30.724"/>
</svg>
