<?xml version="1.0" encoding="utf-8"?>
<!-- Generator: Adobe Illustrator 17.0.2, SVG Export Plug-In . SVG Version: 6.00 Build 0)  -->
<!DOCTYPE svg PUBLIC "-//W3C//DTD SVG 1.1//EN" "http://www.w3.org/Graphics/SVG/1.1/DTD/svg11.dtd">
<svg version="1.1" id="Layer_1" xmlns="http://www.w3.org/2000/svg" xmlns:xlink="http://www.w3.org/1999/xlink" x="0px" y="0px"
	 width="140px" height="200px" viewBox="0 0 140 200" enable-background="new 0 0 140 200" xml:space="preserve">
<g>
	<g>
		<g>
			<path fill="#4A4A4A" stroke="#4A4A4A" stroke-width="2.2273" stroke-linejoin="round" stroke-miterlimit="10" d="M97.617,169.906
				c0,0-8.782,12.215-15.726,12.215c-3.709,0-8.331-0.518-10.958-9.728l0,0c0,0,7.651,2.859,22.206-6.578L97.617,169.906z"/>
		</g>
		<g>
			<path fill="#4A4A4A" stroke="#4A4A4A" stroke-width="2.2273" stroke-linejoin="round" stroke-miterlimit="10" d="M44.818,169.906
				c0,0,8.782,12.215,15.726,12.215c3.709,0,8.331,0.036,10.958-9.174v-0.554c0,0-9.976,3.596-22.725-6.104L44.818,169.906z"/>
		</g>
	</g>
	<g>
		
			<path fill="none" stroke="#4A4A4A" stroke-width="2.2126" stroke-linecap="round" stroke-linejoin="round" stroke-miterlimit="10" d="
			M93.252,165.815c0,0,9.846,6.386,12.055,14.998"/>
		
			<path fill="none" stroke="#4A4A4A" stroke-width="2.2126" stroke-linecap="round" stroke-linejoin="round" stroke-miterlimit="10" d="
			M48.778,165.815c0,0-9.442,6.386-11.651,14.998"/>
		<path fill="none" stroke="#4A4A4A" stroke-width="2.2126" stroke-linecap="round" stroke-miterlimit="10" d="M54.16,97.077
			C49.902,86.468,24.842,79.583,30.549,83.67c1.774,1.27,3.582,3.152,4.288,5.246c0.446,1.316,0.554,2.844,0.488,4.22
			c-0.242,4.981-2.516,11.094,2.407,14.633c0.5,0.36,1.044,0.682,1.614,0.955"/>
		<path fill="none" stroke="#4A4A4A" stroke-width="2.2126" stroke-linecap="round" stroke-miterlimit="10" d="M102.01,108.424
			c11.782-4.738,5.183-37.088,4.069-29.356c-0.31,2.159-1.149,4.631-2.682,6.222c-0.963,1.001-2.269,1.802-3.521,2.376
			c-4.533,2.079-11.006,2.876-11.88,8.875"/>
		<path fill="none" stroke="#4A4A4A" stroke-width="2.2126" stroke-miterlimit="10" d="M110.292,133.033
			c0,21.738-17.622,39.36-39.36,39.36c-7.635,0-14.761-2.174-20.795-5.936c-11.147-6.95-18.565-19.322-18.565-33.425
			c0-21.738,17.622-39.36,39.36-39.36S110.292,111.294,110.292,133.033z"/>
	</g>
	
		<ellipse fill="none" stroke="#4A4A4A" stroke-width="2.2126" stroke-miterlimit="10" cx="70.932" cy="143.597" rx="16.841" ry="11.406"/>
	<g>
		<g>
			<path fill="#4A4A4A" stroke="#4A4A4A" stroke-width="1.4849" stroke-miterlimit="10" d="M91.112,97.356
				c0.185-1.295,1.346-2.761,2.58-3.257c1.235-0.497,3.583-1.44,5.218-2.095l2.959-1.187c1.635-0.656,2.472,0.159,1.859,1.81
				l-1.187,3.198c-0.613,1.652-1.011,4.441-0.885,6.199l0.245,3.401c0.126,1.758-0.904,2.305-2.291,1.219l-2.508-1.967
				c-1.386-1.087-3.377-2.648-4.423-3.47C91.633,100.382,90.927,98.651,91.112,97.356z"/>
			
				<path fill="#4A4A4A" stroke="#4A4A4A" stroke-width="1.4849" stroke-linecap="round" stroke-linejoin="round" stroke-miterlimit="10" d="
				M91.112,97.356c0.185-1.295,1.346-2.761,2.58-3.257c1.235-0.497,3.583-1.44,5.218-2.095l2.959-1.187
				c1.635-0.656,2.472,0.159,1.859,1.81l-1.187,3.198c-0.613,1.652-1.011,4.441-0.885,6.199l0.245,3.401
				c0.126,1.758-0.904,2.305-2.291,1.219l-2.508-1.967c-1.386-1.087-3.377-2.648-4.423-3.47
				C91.633,100.382,90.927,98.651,91.112,97.356z"/>
		</g>
		<g>
			<path fill="#4A4A4A" stroke="#4A4A4A" stroke-width="1.4849" stroke-miterlimit="10" d="M85.337,97.155
				c-0.185,1.295-1.345,2.762-2.579,3.257c-1.235,0.496-3.582,1.44-5.218,2.095l-2.959,1.188c-1.635,0.656-2.471-0.158-1.859-1.81
				l1.187-3.198c0.613-1.652,1.01-4.441,0.884-6.199l-0.245-3.401c-0.126-1.758,0.904-2.305,2.291-1.219l2.508,1.968
				c1.386,1.087,3.377,2.648,4.423,3.47C84.816,94.127,85.522,95.859,85.337,97.155z"/>
			
				<path fill="#4A4A4A" stroke="#4A4A4A" stroke-width="1.4849" stroke-linecap="round" stroke-linejoin="round" stroke-miterlimit="10" d="
				M85.337,97.155c-0.185,1.295-1.345,2.762-2.579,3.257c-1.235,0.496-3.582,1.44-5.218,2.095l-2.959,1.188
				c-1.635,0.656-2.471-0.158-1.859-1.81l1.187-3.198c0.613-1.652,1.01-4.441,0.884-6.199l-0.245-3.401
				c-0.126-1.758,0.904-2.305,2.291-1.219l2.508,1.968c1.386,1.087,3.377,2.648,4.423,3.47
				C84.816,94.127,85.522,95.859,85.337,97.155z"/>
		</g>
		
			<path fill="#4A4A4A" stroke="#4A4A4A" stroke-width="1.4849" stroke-linecap="round" stroke-linejoin="round" stroke-miterlimit="10" d="
			M91.988,98.456c-0.203,1.67-1.723,2.858-3.394,2.654l-1.799-0.22c-1.67-0.204-2.858-1.724-2.655-3.394l0.219-1.799
			c0.205-1.67,1.724-2.861,3.395-2.656l1.799,0.22c1.672,0.203,2.861,1.723,2.656,3.394L91.988,98.456z"/>
	</g>
	
		<ellipse fill="#4A4A4A" stroke="#4A4A4A" stroke-width="1.4849" stroke-miterlimit="10" cx="57.92" cy="118.835" rx="1.933" ry="2.416"/>
	
		<ellipse fill="#4A4A4A" stroke="#4A4A4A" stroke-width="1.4849" stroke-miterlimit="10" cx="83.245" cy="118.835" rx="1.933" ry="2.416"/>
	
		<ellipse fill="#4A4A4A" stroke="#4A4A4A" stroke-width="1.2278" stroke-miterlimit="10" cx="66.528" cy="143.581" rx="1.337" ry="2.971"/>
	
		<ellipse fill="#4A4A4A" stroke="#4A4A4A" stroke-width="1.2278" stroke-miterlimit="10" cx="74.922" cy="143.581" rx="1.337" ry="2.971"/>
	<path fill="#B7BAC0" d="M109.083,111.568c-0.698-2.125-3.558-2.139-5.369-2.428c-2.927-0.464-5.936-0.257-8.891-0.347
		c-4.977-0.149-9.958,0.288-14.796,1.504c-2.909,0.734-6.288,1.482-9.291,1.387c-1.802-0.054-3.508-0.473-5.126-0.851
		c-8.413-1.959-16.984-2.99-25.605-1.977c-1.572,0.185-6.927-0.081-7.382,2.103c-0.495,2.369,1.166,3.459,2.166,5.234
		c0.518,0.919,0.806,1.918,0.996,2.95c0.392,2.166,0.292,4.405,0.891,6.54c0.865,3.09,3.302,6.188,6.355,7.332
		c2.153,0.811,4.779,0.959,7.062,0.896c13.651-0.355,17.2-11.282,17.948-15.439c0.401-2.23,1.549-2.459,2.833-2.491
		c2.275-0.063,2.535,1.599,2.932,2.608c4.679,11.828,7.495,14.521,17.313,15.377c4.391,0.383,9.107-0.117,11.71-4.04
		c2.018-3.049,2.068-6.175,2.77-9.607c0.203-0.968,0.554-1.865,1.036-2.725C107.624,115.816,109.835,113.857,109.083,111.568z
		 M64.098,121.274c-2.09,6.161-5.364,10.638-13.778,10.864c-8.332,0-10.751-1.518-11.859-11.22c0-6.512-0.428-10.323,11.931-10.3
		C58.725,111.42,67.463,111.339,64.098,121.274z M103.508,120.918c-1.107,9.701-3.526,11.22-11.859,11.22
		c-8.413-0.225-11.688-4.697-13.778-10.864c-3.365-9.936,5.373-9.855,13.705-10.651C103.936,110.596,103.508,114.41,103.508,120.918
		z"/>
	<g>
		
			<path fill="none" stroke="#4A4A4A" stroke-width="1.7701" stroke-linecap="round" stroke-linejoin="round" stroke-miterlimit="10" d="
			M81.168,158.948c0,0,8.95,2.503,11.671-7.508"/>
		
			<path fill="none" stroke="#4A4A4A" stroke-width="1.7701" stroke-linecap="round" stroke-linejoin="round" stroke-miterlimit="10" d="
			M91.071,148.519c0,0,2.119,5.89,5.566,2.92"/>
	</g>
</g>
</svg>
