<?xml version="1.0" encoding="utf-8"?>
<!-- Generator: Adobe Illustrator 19.2.1, SVG Export Plug-In . SVG Version: 6.00 Build 0)  -->
<svg version="1.1" id="Layer_1" xmlns="http://www.w3.org/2000/svg" xmlns:xlink="http://www.w3.org/1999/xlink" x="0px" y="0px"
	 viewBox="0 0 227 291" style="enable-background:new 0 0 227 291;" xml:space="preserve">
<style type="text/css">
	.st0{fill:#1F1F1F;}
	.st1{fill:#1F1F1F;stroke:#000000;stroke-miterlimit:10;}
	.st2{fill:#4A4A4A;}
	.st3{fill:none;stroke:#4A4A4A;stroke-width:7;stroke-linecap:round;stroke-linejoin:round;stroke-miterlimit:10;}
	.st4{fill:none;stroke:#4A4A4A;stroke-width:7;stroke-linecap:round;stroke-miterlimit:10;}
	.st5{fill:none;stroke:#4A4A4A;stroke-width:7;stroke-miterlimit:10;}
	.st6{fill:none;stroke:#4A4A4A;stroke-width:6;stroke-linecap:round;stroke-linejoin:round;stroke-miterlimit:10;}
</style>
<g>
	<g>
		<g>
			<g>
				<path class="st2" d="M117.3,259.6c0,0-0.5,0-1.3,0.3l0,0c0.3,0,0.5,0.3,1.3,0.3V259.6z"/>
				<path class="st2" d="M188.7,250.8l-12-10.4l-3.7-0.3c-34.9,21.3-54.4,17.6-56.2,17.1l0,0l-0.5-0.5c-0.3,0-25.3,8-57.3-15.2
					l-3.7,0.3l-10.4,9.1l-1.1,2.9c1.1,1.3,25,32.5,45,32.5l0,0c8.8,0,20.5,0,28.2-16.3c7.5,14.9,18.4,16.3,28,16.3
					c19.7,0,43.2-30.6,44.2-31.7L188.7,250.8z M116,259.8L116,259.8c0.8-0.3,1.1-0.5,1.1-0.5v0.8C116.8,260.1,116.2,260.1,116,259.8
					z"/>
			</g>
		</g>
		<g>
			<g>
				<path class="st2" d="M117.3,260.1c-0.5,0-1.1-0.3-1.3-0.3l0,0c0.8-0.3,1.3-0.3,1.3-0.3V260.1z"/>
				<path class="st2" d="M117.3,259.6c0,0-0.5,0-1.3,0.3l0,0c0.3,0,0.5,0.3,1.3,0.3V259.6z"/>
			</g>
		</g>
	</g>
	<g>
		<path class="st2" d="M207.1,283.3c-1.6,0-3-1-3.4-2.6c-5.5-21.1-30.2-37.5-30.5-37.6c-1.6-1.1-2.1-3.2-1-4.8
			c1.1-1.6,3.2-2.1,4.8-1c1.1,0.7,27.3,18.1,33.4,41.8c0.5,1.9-0.6,3.8-2.5,4.3C207.7,283.3,207.4,283.3,207.1,283.3z"/>
		<path class="st2" d="M26.2,283.3c-0.3,0-0.6,0-0.9-0.1c-1.9-0.5-3-2.4-2.5-4.3c6.1-23.7,31.3-41,32.3-41.7
			c1.6-1.1,3.8-0.7,4.9,0.9c1.1,1.6,0.7,3.8-0.9,4.9c-0.3,0.2-24,16.7-29.5,37.7C29.1,282.3,27.7,283.3,26.2,283.3z"/>
		<path class="st2" d="M32.3,92c-0.5,0-1.1-0.1-1.6-0.4c-1.9-1-3.4-1.9-4.8-3c-11.8-8.5-10.1-21.5-8.7-32.9c0.4-3.1,0.8-6.1,0.9-8.9
			l0-0.1c0.2-3.2-0.2-6.7-1.2-9.9c-1.3-4-4.9-8.3-10.2-12c-1.3-0.9-4.5-3.1-3.5-6.3c0.3-0.9,1.2-2.9,4.6-3.1c0.1,0,0.3,0,0.4,0
			c10.9,0,56.9,16.9,66.4,41c0.7,1.8-0.2,3.8-2,4.5c-1.8,0.7-3.8-0.2-4.5-2c-6.8-17.2-36.3-30.5-51.6-35c2.9,2.9,5.6,6.5,7,10.7
			c1.3,4.1,1.8,8.5,1.5,12.5c-0.1,3.1-0.5,6.3-0.9,9.4C22.9,67.1,21.6,77,30.1,83l0.2,0.1c1,0.8,2.1,1.5,3.6,2.3
			c1.7,0.9,2.4,3,1.6,4.7C34.8,91.3,33.6,92,32.3,92z"/>
		<path class="st2" d="M198.3,91.2c-1.4,0-2.7-0.8-3.2-2.2c-0.7-1.8,0.1-3.8,1.9-4.6c6-2.4,10.5-8.5,13.2-18c4.6-16.1,3-37,0.8-48.6
			c-1.3,3.9-3.3,7.9-6.5,11.1c-2.6,2.6-6,4.9-10.2,7.1c-2.9,1.3-5.9,2.5-8.8,3.5c-9.9,3.6-19.3,7.1-20.7,17.3c-0.3,1.9-2,3.3-3.9,3
			c-1.9-0.3-3.3-2-3-3.9c1.9-14.3,14.3-18.9,25.2-22.9c2.9-1.1,5.7-2.1,8.2-3.3c3.5-1.7,6.3-3.7,8.3-5.7c4.3-4.3,5.7-10.9,6.2-14.5
			c0.2-1.5,0.9-6.1,4.7-6.2c3.4-0.1,5.3,3.1,7.2,11.9c2,9.4,3.6,25.8,1.7,41.1c-2.3,18.5-9.1,30.5-19.7,34.8
			C199.2,91.1,198.7,91.2,198.3,91.2z"/>
		<path class="st2" d="M116,261c-20.1,0-39.8-5.6-57-16.2C27,224.9,8,190.6,8,153C8,93.5,56.4,45.1,116,45.1S223.9,93.5,223.9,153
			C223.9,212.5,175.5,261,116,261z M116,52.1C60.3,52.1,15,97.3,15,153c0,35.2,17.8,67.2,47.6,85.8C78.8,248.7,97.2,254,116,254
			c55.7,0,100.9-45.3,100.9-100.9S171.6,52.1,116,52.1z"/>
	</g>
	<path class="st2" d="M116,214.9c-26.6,0-48.3-15.2-48.3-33.9c0-18.7,21.7-33.9,48.3-33.9s48.3,15.2,48.3,33.9
		C164.2,199.7,142.6,214.9,116,214.9z M116,154.1c-22.8,0-41.3,12.1-41.3,26.9s18.5,26.9,41.3,26.9s41.3-12.1,41.3-26.9
		S138.7,154.1,116,154.1z"/>
	<g>
		<g>
			<g>
				<path class="st2" d="M173.8,51.5c-0.5,0.3-1.1,0.8-1.6,1.1c0.3,0.5,0.5,1.3,0.5,2.1c0.5-0.5,1.1-0.8,1.9-1.3
					C174.3,52.8,174,52.3,173.8,51.5z"/>
			</g>
			<g>
				<path class="st2" d="M173.8,51.5c-0.5,0.3-1.1,0.8-1.6,1.1c0.3,0.5,0.5,1.3,0.5,2.1c0.5-0.5,1.1-0.8,1.9-1.3
					C174.3,52.8,174,52.3,173.8,51.5z"/>
			</g>
		</g>
		<g>
			<g>
				<path class="st2" d="M173.5,51.5c1.1-0.5,2.1-1.1,3.2-1.3l22.9-5.1c4-0.8,5.9,0.5,6.7,1.6c1.1,1.1,1.9,3.2-0.3,6.9l-4.5,7.7
					c-2.1,3.7-4.3,10.7-4.8,15.2l-0.8,9.1c-0.3,4.3-2.4,5.3-3.5,5.9c-0.5,0.3-1.3,0.3-2.1,0.3c-1.1-0.3-2.7-0.8-4.3-2.7l-15.7-17.3
					c-0.5-0.8-1.3-1.6-1.9-2.4l-0.3,0.3c-2.1,1.1-4.3,1.6-6.4,1.1c-0.3,0-0.8-0.3-1.3-0.3l-4.5-1.3c-2.7-0.8-4.5-2.4-5.9-4.5
					c-1.1,0.8-2.4,1.3-3.7,1.6l-22.9,5.1c-1.3,0.3-2.7,0.3-3.5,0.3c-1.6-0.3-2.7-1.1-3.2-1.9c-0.8-1.1-1.6-3.2,0.5-6.9l4.5-8
					c2.1-3.7,4.3-10.7,4.8-15.2l0.8-9.1c0.3-4.3,2.4-5.3,3.5-5.9s3.5-0.5,6.4,2.4L153,44.3c0.5,0.5,0.8,1.1,1.3,1.9
					c2.4-1.6,5.3-2.1,8.3-1.3l4.5,1.3c2.7,0.8,4.8,2.4,6.1,4.8C173.2,51.2,173.5,51.2,173.5,51.5"/>
			</g>
		</g>
	</g>
	<g>
		<path class="st2" d="M88.5,115.4c0,4.5-3.2,8.3-7.2,8.3s-7.2-3.7-7.2-8.3s3.2-8.3,7.2-8.3C85.3,106.9,88.5,110.6,88.5,115.4z"/>
	</g>
	<g>
		<path class="st2" d="M155.7,115.4c0,4.5-3.2,8.3-7.2,8.3c-4,0-7.2-3.7-7.2-8.3s3.2-8.3,7.2-8.3
			C152.5,106.9,155.7,110.6,155.7,115.4z"/>
	</g>
	<g>
		<path class="st2" d="M109,181c0,4.5-1.6,9.3-4.8,9.3c-3.2,0-4.8-4.5-4.8-9.3c0-4.5,1.6-9.3,4.8-9.3C107.4,171.9,109,176.4,109,181
			z"/>
	</g>
	<g>
		<path class="st2" d="M131.4,181c0,4.5-1.6,9.3-4.8,9.3c-3.2,0-4.8-4.5-4.8-9.3c0-4.5,1.6-9.3,4.8-9.3
			C129.8,171.9,131.4,176.4,131.4,181z"/>
	</g>
	<g>
		<path class="st2" d="M150.5,225.7c-4.6,0-8-1-8.3-1.1c-1.6-0.5-2.5-2.2-2-3.8c0.5-1.6,2.2-2.5,3.8-2c0.1,0,8.8,2.6,16.4-1.6
			c5.1-2.8,8.7-8,10.7-15.5c0.4-1.6,2.1-2.5,3.7-2.1c1.6,0.4,2.5,2.1,2.1,3.7c-2.5,9.2-7.1,15.6-13.6,19.2
			C158.9,225,154.3,225.7,150.5,225.7z"/>
		<path class="st2" d="M178.8,207.3c-0.8,0-1.5-0.1-2.1-0.3c-6.5-1.7-9.9-10.7-10.3-11.7c-0.6-1.6,0.3-3.3,1.8-3.8
			c1.6-0.6,3.3,0.3,3.8,1.8c0.8,2.3,3.4,7.2,6.1,7.9c0.4,0.1,1.6,0.4,3.7-1.4c1.2-1.1,3.1-1,4.2,0.3c1.1,1.2,1,3.1-0.3,4.2
			C183.2,206.6,180.8,207.3,178.8,207.3z"/>
	</g>
	<path class="st2" d="M215.3,94.6c-1.9-5.6-9.6-5.6-14.4-6.4c-20.5-3.2-43.2-1.9-63.1,3.2c-7.2,1.9-15.2,3.7-22.6,3.7
		s-15.7-1.9-22.9-3.7c-20-5.1-42.6-6.4-63.1-3.2c-4.8,0.8-12.5,0.8-14.4,6.4c-2.1,6.1,4,11.2,6.4,16c1.3,2.4,2.1,4.8,2.7,7.2
		c1.9,9.1,2.1,17.6,7.5,25.6c8,12,24.2,12,37,10.4c10.1-1.6,19.7-5.1,26.1-13.1s10.4-17.9,14.1-27.4c0.5-1.3,0.8-2.7,1.6-4
		c0.8-1.6,1.9-2.7,3.5-3.2c1.9-0.5,4,0.3,5.1,1.9c1.1,1.3,1.6,2.9,1.9,4.3c0,0.3,0.3,0.5,0.3,0.8c3.7,9.3,7.7,19.5,14.1,27.4
		c6.4,8,16.3,11.7,26.1,13.1c12.8,1.9,29,1.6,37-10.4c5.3-8,5.6-16.5,7.5-25.6c0.5-2.7,1.6-5.1,2.7-7.2
		C211.6,106.1,217.5,100.8,215.3,94.6z M98.1,120.5c-5.6,16.5-14.4,28.2-36.8,29c-4.5,0-9.1,0-13.3-1.1c-6.1-1.1-10.9-4.3-13.9-9.9
		c-2.9-5.9-4-12.5-4.5-19.2c-0.3-3.5,0-6.7,0-9.9c0.3-2.7,0.5-5.1,1.6-7.5c1.1-2.1,2.7-4.3,4.8-5.6c2.9-1.9,6.1-2.9,9.3-3.5
		c5.1-1.1,10.7-1.3,16-1.1c4.5,0.3,9.1,0.8,13.3,1.3c4,0.5,8,1.1,11.7,2.1c3.2,0.8,6.4,2.1,8.8,4.3c2.4,2.1,3.7,4.8,4.3,8
		C100.5,112,99.4,116.5,98.1,120.5z M200.7,119.7c-0.3,6.7-1.6,13.3-4.5,19.2c-2.7,5.6-7.7,8.8-13.9,9.9c-4.3,0.8-8.8,1.1-13.3,1.1
		c-22.4-0.5-31.2-12.5-36.8-29c-1.3-4-2.4-8.5-1.9-12.8c0.5-3.2,1.9-5.9,4.3-8s5.6-3.5,8.8-4.3c3.7-1.1,7.7-1.6,11.7-2.1
		c4.5-0.5,8.8-1.1,13.3-1.3c5.3-0.3,10.7,0.3,16,1.1c3.2,0.5,6.7,1.6,9.3,3.5c2.1,1.3,3.7,3.2,4.8,5.6s1.3,5.1,1.6,7.5
		C200.7,113,200.7,116.2,200.7,119.7z"/>
</g>
</svg>
