<?xml version="1.0" encoding="utf-8"?>
<!-- Generator: Adobe Illustrator 19.2.1, SVG Export Plug-In . SVG Version: 6.00 Build 0)  -->
<svg version="1.1" id="Layer_1" xmlns="http://www.w3.org/2000/svg" xmlns:xlink="http://www.w3.org/1999/xlink" x="0px" y="0px"
	 viewBox="0 0 227 291" style="enable-background:new 0 0 227 291;" xml:space="preserve">
<style type="text/css">
	.st0{fill:#1F1F1F;}
	.st1{fill:#1F1F1F;stroke:#000000;stroke-miterlimit:10;}
	.st2{fill:#4A4A4A;}
	.st3{fill:none;stroke:#4A4A4A;stroke-width:7;stroke-linecap:round;stroke-linejoin:round;stroke-miterlimit:10;}
	.st4{fill:none;stroke:#4A4A4A;stroke-width:7;stroke-linecap:round;stroke-miterlimit:10;}
	.st5{fill:none;stroke:#4A4A4A;stroke-width:7;stroke-miterlimit:10;}
	.st6{fill:none;stroke:#4A4A4A;stroke-width:6;stroke-miterlimit:10;}
	.st7{fill:none;stroke:#4A4A4A;stroke-width:6;stroke-linecap:round;stroke-linejoin:round;stroke-miterlimit:10;}
</style>
<g>
	<g>
		<g>
			<g>
				<path class="st2" d="M117.3,258.6c0,0-0.5,0-1.3,0.3l0,0c0.3,0,0.5,0.3,1.3,0.3V258.6z"/>
				<path class="st2" d="M188.7,249.8l-12-10.4l-3.7-0.3c-34.9,21.3-54.4,17.6-56.2,17.1l0,0l-0.5-0.5c-0.3,0-25.3,8-57.3-15.2
					l-3.7,0.3l-10.4,9.1l-1.1,2.9c1.1,1.3,25,32.5,45,32.5l0,0c8.8,0,20.5,0,28.2-16.3c7.5,14.9,18.4,16.3,28,16.3
					c19.7,0,43.2-30.6,44.2-31.7L188.7,249.8z M116,258.9L116,258.9c0.8-0.3,1.1-0.5,1.1-0.5v0.8C116.8,259.1,116.2,259.1,116,258.9
					z"/>
			</g>
		</g>
		<g>
			<g>
				<path class="st2" d="M117.3,259.1c-0.5,0-1.1-0.3-1.3-0.3l0,0c0.8-0.3,1.3-0.3,1.3-0.3V259.1z"/>
				<path class="st2" d="M117.3,258.6c0,0-0.5,0-1.3,0.3l0,0c0.3,0,0.5,0.3,1.3,0.3V258.6z"/>
			</g>
		</g>
	</g>
	<g>
		<path class="st3" d="M175.1,239.1c0,0,26.1,17.1,32,39.7"/>
		<path class="st3" d="M57.1,239.1c0,0-25,17.1-30.9,39.7"/>
		<path class="st4" d="M71.5,56.6C60.3,28.4-6.3,10.3,8.8,20.9c4.8,3.5,9.6,8.3,11.5,13.9c1.1,3.5,1.6,7.5,1.3,11.2
			C21.1,59.3,15,75.5,28,84.9c1.3,1.1,2.7,1.9,4.3,2.7"/>
		<path class="st4" d="M198.3,86.7c31.2-12.5,13.9-98.3,10.9-77.8c-0.8,5.9-2.9,12.3-7.2,16.5c-2.7,2.7-6.1,4.8-9.3,6.4
			c-12,5.6-29.3,7.7-31.4,23.4"/>
		<path class="st5" d="M220.4,152c0,57.8-46.9,104.4-104.4,104.4c-20.3,0-39.2-5.9-55.2-15.7c-29.6-18.4-49.3-51.2-49.3-88.7
			C11.5,94.2,58.4,47.6,116,47.6S220.4,94.5,220.4,152z"/>
	</g>
	<ellipse class="st6" cx="116" cy="180" rx="44.8" ry="30.4"/>
	<g>
		<g>
			<g>
				<path class="st2" d="M173.8,50.5c-0.5,0.3-1.1,0.8-1.6,1.1c0.3,0.5,0.5,1.3,0.5,2.1c0.5-0.5,1.1-0.8,1.9-1.3
					C174.3,51.8,174,51.3,173.8,50.5z"/>
			</g>
			<g>
				<path class="st2" d="M173.8,50.5c-0.5,0.3-1.1,0.8-1.6,1.1c0.3,0.5,0.5,1.3,0.5,2.1c0.5-0.5,1.1-0.8,1.9-1.3
					C174.3,51.8,174,51.3,173.8,50.5z"/>
			</g>
		</g>
		<g>
			<g>
				<path class="st2" d="M173.5,50.5c1.1-0.5,2.1-1.1,3.2-1.3l22.9-5.1c4-0.8,5.9,0.5,6.7,1.6c1.1,1.1,1.9,3.2-0.3,6.9l-4.5,7.7
					c-2.1,3.7-4.3,10.7-4.8,15.2l-0.8,9.1c-0.3,4.3-2.4,5.3-3.5,5.9c-0.5,0.3-1.3,0.3-2.1,0.3c-1.1-0.3-2.7-0.8-4.3-2.7l-15.7-17.3
					c-0.5-0.8-1.3-1.6-1.9-2.4l-0.3,0.3c-2.1,1.1-4.3,1.6-6.4,1.1c-0.3,0-0.8-0.3-1.3-0.3l-4.5-1.3c-2.7-0.8-4.5-2.4-5.9-4.5
					c-1.1,0.8-2.4,1.3-3.7,1.6l-22.9,5.1c-1.3,0.3-2.7,0.3-3.5,0.3c-1.6-0.3-2.7-1.1-3.2-1.9c-0.8-1.1-1.6-3.2,0.5-6.9l4.5-8
					c2.1-3.7,4.3-10.7,4.8-15.2l0.8-9.1c0.3-4.3,2.4-5.3,3.5-5.9c1.1-0.5,3.5-0.5,6.4,2.4L153,43.3c0.5,0.5,0.8,1.1,1.3,1.9
					c2.4-1.6,5.3-2.1,8.3-1.3l4.5,1.3c2.7,0.8,4.8,2.4,6.1,4.8C173.2,50.2,173.5,50.2,173.5,50.5"/>
			</g>
		</g>
	</g>
	<g>
		<path class="st2" d="M88.5,114.4c0,4.5-3.2,8.3-7.2,8.3s-7.2-3.7-7.2-8.3c0-4.5,3.2-8.3,7.2-8.3C85.3,105.9,88.5,109.6,88.5,114.4
			z"/>
	</g>
	<g>
		<path class="st2" d="M155.7,114.4c0,4.5-3.2,8.3-7.2,8.3c-4,0-7.2-3.7-7.2-8.3c0-4.5,3.2-8.3,7.2-8.3
			C152.5,105.9,155.7,109.6,155.7,114.4z"/>
	</g>
	<g>
		<path class="st2" d="M109,180c0,4.5-1.6,9.3-4.8,9.3c-3.2,0-4.8-4.5-4.8-9.3c0-4.5,1.6-9.3,4.8-9.3C107.4,170.9,109,175.5,109,180
			z"/>
	</g>
	<g>
		<path class="st2" d="M131.4,180c0,4.5-1.6,9.3-4.8,9.3c-3.2,0-4.8-4.5-4.8-9.3c0-4.5,1.6-9.3,4.8-9.3
			C129.8,170.9,131.4,175.5,131.4,180z"/>
	</g>
	<g>
		<path class="st7" d="M143.1,220.8c0,0,23.7,7.5,30.9-19.1"/>
		<path class="st7" d="M169.2,193.3c0,0,5.6,15.7,14.7,7.7"/>
	</g>
	<path class="st2" d="M215.3,93.7c-1.9-5.6-9.6-5.6-14.4-6.4c-20.5-3.2-43.2-1.9-63.1,3.2c-7.2,1.9-15.2,3.7-22.6,3.7
		s-15.7-1.9-22.9-3.7c-20-5.1-42.6-6.4-63.1-3.2c-4.8,0.8-12.5,0.8-14.4,6.4c-2.1,6.1,4,11.2,6.4,16c1.3,2.4,2.1,4.8,2.7,7.2
		c1.9,9.1,2.1,17.6,7.5,25.6c8,12,24.2,12,37,10.4c10.1-1.6,19.7-5.1,26.1-13.1c6.4-8,10.4-17.9,14.1-27.4c0.5-1.3,0.8-2.7,1.6-4
		c0.8-1.6,1.9-2.7,3.5-3.2c1.9-0.5,4,0.3,5.1,1.9c1.1,1.3,1.6,2.9,1.9,4.3c0,0.3,0.3,0.5,0.3,0.8c3.7,9.3,7.7,19.5,14.1,27.4
		c6.4,8,16.3,11.7,26.1,13.1c12.8,1.9,29,1.6,37-10.4c5.3-8,5.6-16.5,7.5-25.6c0.5-2.7,1.6-5.1,2.7-7.2
		C211.6,105.1,217.5,99.8,215.3,93.7z M98.1,119.5c-5.6,16.5-14.4,28.2-36.8,29c-4.5,0-9.1,0-13.3-1.1c-6.1-1.1-10.9-4.3-13.9-9.9
		c-2.9-5.9-4-12.5-4.5-19.2c-0.3-3.5,0-6.7,0-9.9c0.3-2.7,0.5-5.1,1.6-7.5c1.1-2.1,2.7-4.3,4.8-5.6c2.9-1.9,6.1-2.9,9.3-3.5
		c5.1-1.1,10.7-1.3,16-1.1c4.5,0.3,9.1,0.8,13.3,1.3c4,0.5,8,1.1,11.7,2.1c3.2,0.8,6.4,2.1,8.8,4.3c2.4,2.1,3.7,4.8,4.3,8
		C100.5,111,99.4,115.5,98.1,119.5z M200.7,118.7c-0.3,6.7-1.6,13.3-4.5,19.2c-2.7,5.6-7.7,8.8-13.9,9.9c-4.3,0.8-8.8,1.1-13.3,1.1
		c-22.4-0.5-31.2-12.5-36.8-29c-1.3-4-2.4-8.5-1.9-12.8c0.5-3.2,1.9-5.9,4.3-8c2.4-2.1,5.6-3.5,8.8-4.3c3.7-1.1,7.7-1.6,11.7-2.1
		c4.5-0.5,8.8-1.1,13.3-1.3c5.3-0.3,10.7,0.3,16,1.1c3.2,0.5,6.7,1.6,9.3,3.5c2.1,1.3,3.7,3.2,4.8,5.6c1.1,2.4,1.3,5.1,1.6,7.5
		C200.7,112,200.7,115.2,200.7,118.7z"/>
</g>
</svg>
