<?xml version="1.0" encoding="utf-8"?>
<!-- Generator: Adobe Illustrator 23.0.3, SVG Export Plug-In . SVG Version: 6.00 Build 0)  -->
<svg version="1.1" id="Layer_1" xmlns="http://www.w3.org/2000/svg" xmlns:xlink="http://www.w3.org/1999/xlink" x="0px" y="0px"
	 viewBox="0 0 190 240" style="enable-background:new 0 0 190 240;" xml:space="preserve">
<style type="text/css">
	.st0{fill:#2A2F35;}
</style>
<path class="st0" d="M161.8,69.5v0.2c0,0,0.1,0,0.1,0C161.9,69.6,161.8,69.5,161.8,69.5z"/>
<path class="st0" d="M95.4,125.1c-21.8,0-39.6,12.5-39.6,27.9s17.8,27.9,39.6,27.9c21.8,0,39.6-12.5,39.6-27.9
	S117.2,125.1,95.4,125.1z M95.4,173.9c-18,0-32.6-9.4-32.6-20.9s14.6-20.9,32.6-20.9S128,141.5,128,153S113.4,173.9,95.4,173.9z"/>
<g>
	<g>
		<g>
			<path class="st0" d="M147.8,196.8c21.3-16.1,35.1-41.6,35.1-70.2c0-13-2.9-25.4-8-36.6c1.7-2.3,3.3-4.8,3.3-7.6
				c0-0.8-0.1-1.6-0.4-2.4c-1.5-4.5-6.7-5.1-10.5-5.6h-0.1c16.2-11.9,13.2-47.1,10.6-59.5c-1.4-6.4-3-10.4-6.6-10.3
				c-2.4,0.1-3.9,1.9-4.4,5.5c-0.8,4.7-2.5,9-4.8,11.4c-1.7,1.7-4,3.3-6.5,4.4c-2,0.9-4.2,1.7-6.5,2.6c-6.7,2.4-14.6,5.3-18.6,12.2
				c-1.4,0.1-2.8,0.6-4,1.4c-0.2,0.1-0.4,0.3-0.6,0.4c0,0,0,0,0,0c-0.3-0.4-0.7-0.8-1.1-1.1c-2.2-2-6.1-5.5-8.9-8l-5-4.5
				c-2.4-2.2-4.3-1.9-5.2-1.5c-0.8,0.4-2,1.3-2.3,3.8c0,0.2,0,0.4,0,0.5c0,0.2,0,0.4,0,0.6v6.8c-2.7-0.2-5.4-0.4-8.2-0.4
				c-11.9,0-23.3,2.4-33.7,6.7c-9.6-19.2-45.5-32-53.8-31.6c-3.2,0.2-4.1,2.2-4.4,3c-0.9,3,2,5.1,3.1,5.9c3.8,2.7,6.8,6.3,7.9,9.5
				c0.7,2,1,4.7,0.8,7.7c-0.1,2.1-0.4,4.5-0.7,6.9c-1.1,9-2.6,20,7,27.2c-4.2,0.4-8.5,1.5-9.2,4.8c-0.9,4.1,1,6.7,2.8,9.1
				c0.3,0.3,0.5,0.7,0.7,1c-5.5,11.5-8.5,24.3-8.5,37.8c0,27.2,12.4,52.4,33.5,69c-5.6,4.3-20,16.6-24.1,32.4
				c-0.5,1.9,0.6,3.8,2.5,4.3c0.3,0.1,0.6,0.1,0.9,0.1c1.6,0,3-1.1,3.4-2.6c2.3-8.7,8.5-16.5,14-21.9c3.8,5,20.5,26.2,34.8,26.2
				c8.5,0,17.1-2,22.9-14.6c5.8,12.7,14.4,14.6,22.9,14.6c13.3,0,28.6-18.2,33.8-24.8c5.3,5.3,10.8,12.5,12.9,20.5
				c0.4,1.5,1.8,2.6,3.4,2.6c0.3,0,0.6-0.1,0.9,0.1c1.8-0.5,3-2.4,2.5-4.3C167.6,213.5,154.4,201.8,147.8,196.8z M151.4,35.1
				c2.4-0.9,4.9-1.8,7.1-2.8c3.2-1.5,6.3-3.6,8.5-5.8l0.1-0.1c2-2,3.4-4.6,4.4-7c1.6,9.8,2.5,25.7-1.1,37.6
				c-1.9,6.2-4.8,10.5-8.5,12.6c0,0-0.1,0-0.1,0v-6.5c0-3.4,1.2-9.1,2.6-12.3l3-6.6c1.5-3,0.6-4.7-0.1-5.4c-0.6-0.8-2.2-1.9-5.4-0.8
				l-6.4,2.1c-3.8,1.2-9.1,2.9-11.4,3.7c-0.9,0.3-1.8,0.8-2.6,1.4c-0.1-0.2-0.2-0.3-0.3-0.4c-0.8-1.2-1.9-2.2-3.2-2.8
				C140.8,39.2,145.4,37.3,151.4,35.1z M164.1,96.7c0,1.2-0.1,2.4-0.2,3.5c-2.2,18.5-5.2,23.1-24.4,23.1
				c-18.7-0.5-24.8-11.2-28.6-22.6c-1.3-3.8-2.7-9.5,0-13.6c1.7-2.7,5-4.5,10.1-5.7c6.5-1.5,12.9-2.2,19.2-2.2
				c1.6,0,3.3,0.1,4.8,0.1c5.4,0.3,10.9,0.9,14.7,3.7c2,1.6,3.3,3.8,3.8,6.8C163.9,92.1,164.1,94.5,164.1,96.7z M95,45.7
				c2.5,0,4.9,0.1,7.3,0.3c0,0,0,0,0,0c-0.5,2.2-1.1,4.2-1.8,5.8l-3,6.6c-0.5,1-0.8,1.9-0.8,2.7c0,0.2,0,0.4,0,0.6
				c0.1,1,0.5,1.6,0.9,2c0.5,0.5,1.4,1.2,3,1.2c0.7,0,1.5-0.1,2.3-0.3l6.4-2.1c0.5-0.2,1.1-0.3,1.7-0.5c0.2-0.1,0.4-0.1,0.6-0.2
				c0.1,0,0.2-0.1,0.2-0.1c3-1,5.9-2,8.9-2.9c1-0.3,2-0.9,3-1.7c1.2,1.7,2.9,2.8,4.9,3.2l3.7,0.7c0.5,0.1,1,0.2,1.5,0.2
				c1.6,0,3.1-0.4,4.5-1.5c0.1,0,0.2-0.1,0.2-0.2c0.4,0.7,1,1.4,1.6,1.9c2.2,2,6.1,5.5,8.9,8l4.2,3.8c-4.4-0.1-8.8,0-13.2,0.2
				c-9.6,0.3-17.4,1.3-24.7,3c-0.2,0-0.4,0.1-0.6,0.2c-0.2,0-0.3,0-0.5,0.1c-5.7,1.4-13.1,3.1-19.5,2.9c-3.4-0.1-6.7-0.9-9.9-1.6
				l-0.8-0.2c-18.3-4.3-34.7-5.8-49.7-4.7C49.3,56.3,70.9,45.7,95,45.7z M79.6,100.9c-4,11.4-10.1,22.1-28.7,22.6
				c-19.2,0-22.3-4.6-24.4-23.1c-0.4-4-0.1-8.6,0.8-11.9c2-7,10.4-8.9,17.1-9.3c1.3-0.1,2.8-0.1,4.2-0.1c7.5,0,15.6,1,22.5,3
				c4.4,1.2,7.3,3.1,8.8,5.7C82.2,91.8,80.8,97.2,79.6,100.9z M21.2,47.9c0.4-2.5,0.7-5,0.8-7.4c0.2-2.7,0.1-6.7-1.2-10.4
				c-0.9-2.8-2.5-5.2-4.2-7.2C28.7,26.8,48.7,36.3,55,48.4c-10.5,5.4-19.7,12.8-27.2,21.7c-0.6-0.3-1.2-0.7-2-1.3
				C19.6,64.4,19.9,58,21.2,47.9z M95,207.5c-15,0-29.8-4.2-42.7-12.2c-23.9-14.9-38.2-40.5-38.2-68.6c0-9.8,1.8-19.2,5-28
				c0.1,1.2,0.2,2.3,0.3,3.5c0.2,2.8,0.5,5.7,1.3,8.6c2.1,7.5,7.8,14.1,14.2,16.4c5.3,2,11.3,2.2,15.5,2
				c31.1-0.8,38.1-26.2,39.5-33.9c0.7-4.2,2.9-4.5,5.5-4.5c3.3-0.1,3.9,1.7,4.5,3.7c0.1,0.5,0.2,0.9,0.4,1.3
				c10.2,26,16.6,31.7,37.9,33.6c1.7,0.1,3.3,0.2,4.8,0.2c10.1,0,17-3.1,21.2-9.5c3.5-5.1,4.3-10.4,5.2-15.9c0.3-1.6,0.6-3.3,0.9-5
				c0.1-0.4,0.2-0.9,0.3-1.3c3.4,8.9,5.3,18.6,5.3,28.7C175.9,171.2,139.6,207.5,95,207.5z"/>
		</g>
	</g>
	<g>
		<g>
			<path class="st0" d="M124.7,41.3c-2.2-2-6.1-5.5-8.9-8l-5-4.5c-2.4-2.2-4.3-1.9-5.2-1.5c-0.8,0.4-2.1,1.4-2.3,3.9
				c0.3-2.5,1.5-3.4,2.3-3.8c0.9-0.4,2.8-0.7,5.2,1.5l5,4.5c2.8,2.5,6.7,6,8.9,8c0.4,0.3,0.8,0.7,1.1,1.1c0,0,0,0,0,0
				C125.5,42.1,125.1,41.7,124.7,41.3z M111.9,61.7c3.4-1.1,7.1-2.3,8.9-2.9C117.8,59.8,114.9,60.7,111.9,61.7z M102.3,46
				c-0.5,2.1-1.1,4.2-1.7,5.7l-3,6.6c-0.5,1.1-0.8,2-0.8,2.8c0-0.8,0.3-1.6,0.8-2.7l3-6.6C101.3,50.3,101.9,48.2,102.3,46
				C102.3,46,102.3,46,102.3,46z"/>
		</g>
		<g>
			<path class="st0" d="M109.4,62.5l-6.4,2.1c-0.8,0.2-1.6,0.3-2.3,0.3c-1.6,0-2.5-0.7-3-1.2c-0.4-0.4-0.8-1-0.9-2
				c0.1,1,0.5,1.7,0.9,2.1c0.5,0.5,1.4,1.2,3,1.2c0.7,0,1.5-0.1,2.4-0.4h0.1c2.6-0.9,5.2-1.7,7.9-2.6
				C110.5,62.2,109.9,62.3,109.4,62.5z"/>
		</g>
	</g>
</g>
<g>
	<g>
		<ellipse class="st0" cx="63.5" cy="96.2" rx="7.1" ry="8.2"/>
	</g>
</g>
<g>
	<ellipse class="st0" cx="84.4" cy="153" rx="4.4" ry="7.9"/>
</g>
<g>
	<ellipse class="st0" cx="105.5" cy="153" rx="4.4" ry="7.9"/>
</g>
<g>
	<path class="st0" d="M153.3,174.4c-1.8,0.7-3.6,1-5.3,1c-0.6,0-1.2-0.1-1.8-0.1c-6.1,13.3-19.1,16.8-25.8,16.8H120
		c-1.9,0-3.5-1.6-3.4-3.6c0-1.9,1.7-3.5,3.6-3.4c0.6,0,14.3,0,19.9-13.4c-2.1-2.6-2.6-5.7-2.7-6.1c-0.2-1.9,1.1-3.7,3-3.9
		c1.9-0.2,3.6,1.1,3.9,3c0,0.1,0.4,2.4,1.9,3.3c1.3,0.8,3.2,0.3,4.7-0.2c1.8-0.7,3.8,0.3,4.5,2.1
		C156.1,171.7,155.1,173.7,153.3,174.4z"/>
	<ellipse class="st0" cx="126.5" cy="96.2" rx="7.1" ry="8.2"/>
</g>
</svg>
