<?xml version="1.0" encoding="utf-8"?>
<!-- Generator: Adobe Illustrator 17.0.2, SVG Export Plug-In . SVG Version: 6.00 Build 0)  -->
<!DOCTYPE svg PUBLIC "-//W3C//DTD SVG 1.1//EN" "http://www.w3.org/Graphics/SVG/1.1/DTD/svg11.dtd">
<svg version="1.1" id="Layer_1" xmlns="http://www.w3.org/2000/svg" xmlns:xlink="http://www.w3.org/1999/xlink" x="0px" y="0px"
	 width="140px" height="200px" viewBox="0 0 140 200" enable-background="new 0 0 140 200" xml:space="preserve">
<g>
	<g>
		<path fill="#4A4A4A" stroke="#4A4A4A" stroke-width="2.1418" stroke-linejoin="round" stroke-miterlimit="10" d="M95.211,165.775
			c0,0-8.445,11.746-15.123,11.746c-3.567,0-8.011-0.498-10.538-9.355l0,0c0,0,7.357,2.749,21.354-6.326L95.211,165.775z"/>
	</g>
	<g>
		<path fill="#4A4A4A" stroke="#4A4A4A" stroke-width="2.1418" stroke-linejoin="round" stroke-miterlimit="10" d="M44.438,165.775
			c0,0,8.445,11.746,15.123,11.746c3.567,0,8.011,0.035,10.538-8.822v-0.533c0,0-9.593,3.458-21.853-5.87L44.438,165.775z"/>
	</g>
</g>
<g>
	
		<path fill="none" stroke="#4A4A4A" stroke-width="2.1277" stroke-linecap="round" stroke-linejoin="round" stroke-miterlimit="10" d="
		M91.014,161.841c0,0,9.469,6.141,11.593,14.422"/>
	
		<path fill="none" stroke="#4A4A4A" stroke-width="2.1277" stroke-linecap="round" stroke-linejoin="round" stroke-miterlimit="10" d="
		M48.246,161.841c0,0-9.08,6.141-11.204,14.422"/>
	<path fill="none" stroke="#4A4A4A" stroke-width="2.1277" stroke-linecap="round" stroke-miterlimit="10" d="M53.422,95.741
		c-4.095-10.202-28.193-16.823-22.705-12.892c1.706,1.221,3.445,3.031,4.123,5.045c0.429,1.266,0.533,2.735,0.469,4.058
		c-0.233,4.79-2.419,10.668,2.315,14.072c0.481,0.346,1.004,0.656,1.552,0.919"/>
	<path fill="none" stroke="#4A4A4A" stroke-width="2.1277" stroke-linecap="round" stroke-miterlimit="10" d="M99.436,106.653
		c11.33-4.556,4.984-35.665,3.913-28.23c-0.298,2.076-1.105,4.454-2.579,5.983c-0.926,0.963-2.182,1.733-3.386,2.285
		c-4.359,1.999-10.584,2.765-11.424,8.534"/>
	<path fill="none" stroke="#4A4A4A" stroke-width="2.1277" stroke-miterlimit="10" d="M107.4,130.317
		c0,20.904-16.946,37.85-37.85,37.85c-7.342,0-14.194-2.09-19.998-5.708c-10.72-6.683-17.853-18.58-17.853-32.143
		c0-20.904,16.946-37.85,37.85-37.85S107.4,109.413,107.4,130.317z"/>
</g>
<ellipse fill="none" stroke="#4A4A4A" stroke-width="2.1277" stroke-miterlimit="10" cx="69.55" cy="140.476" rx="16.195" ry="10.969"/>
<g>
	<g>
		<path fill="#4A4A4A" stroke="#4A4A4A" stroke-width="1.4279" stroke-miterlimit="10" d="M88.955,96.01
			c0.178-1.246,1.295-2.655,2.481-3.132c1.187-0.478,3.445-1.384,5.018-2.015l2.845-1.142c1.572-0.631,2.377,0.153,1.788,1.74
			l-1.141,3.075c-0.59,1.589-0.972,4.271-0.851,5.961l0.236,3.271c0.122,1.69-0.87,2.217-2.203,1.172l-2.412-1.891
			c-1.333-1.045-3.248-2.547-4.253-3.337C89.457,98.92,88.778,97.255,88.955,96.01z"/>
		
			<path fill="#4A4A4A" stroke="#4A4A4A" stroke-width="1.4279" stroke-linecap="round" stroke-linejoin="round" stroke-miterlimit="10" d="
			M88.955,96.01c0.178-1.246,1.295-2.655,2.481-3.132c1.187-0.478,3.445-1.384,5.018-2.015l2.845-1.142
			c1.572-0.631,2.377,0.153,1.788,1.74l-1.141,3.075c-0.59,1.589-0.972,4.271-0.851,5.961l0.236,3.271
			c0.122,1.69-0.87,2.217-2.203,1.172l-2.412-1.891c-1.333-1.045-3.248-2.547-4.253-3.337C89.457,98.92,88.778,97.255,88.955,96.01z
			"/>
	</g>
	<g>
		<path fill="#4A4A4A" stroke="#4A4A4A" stroke-width="1.4279" stroke-miterlimit="10" d="M83.403,95.816
			c-0.178,1.246-1.293,2.656-2.48,3.132c-1.187,0.477-3.445,1.384-5.017,2.015l-2.845,1.142c-1.572,0.631-2.376-0.152-1.788-1.74
			l1.141-3.075c0.59-1.589,0.972-4.271,0.85-5.961l-0.236-3.271c-0.122-1.69,0.87-2.217,2.203-1.172l2.412,1.892
			c1.333,1.045,3.248,2.547,4.253,3.337C82.901,92.905,83.58,94.57,83.403,95.816z"/>
		
			<path fill="#4A4A4A" stroke="#4A4A4A" stroke-width="1.4279" stroke-linecap="round" stroke-linejoin="round" stroke-miterlimit="10" d="
			M83.403,95.816c-0.178,1.246-1.293,2.656-2.48,3.132c-1.187,0.477-3.445,1.384-5.017,2.015l-2.845,1.142
			c-1.572,0.631-2.376-0.152-1.788-1.74l1.141-3.075c0.59-1.589,0.972-4.271,0.85-5.961l-0.236-3.271
			c-0.122-1.69,0.87-2.217,2.203-1.172l2.412,1.892c1.333,1.045,3.248,2.547,4.253,3.337C82.901,92.905,83.58,94.57,83.403,95.816z"
			/>
	</g>
	
		<path fill="#4A4A4A" stroke="#4A4A4A" stroke-width="1.4279" stroke-linecap="round" stroke-linejoin="round" stroke-miterlimit="10" d="
		M89.799,97.067c-0.195,1.606-1.657,2.749-3.264,2.552l-1.73-0.211c-1.606-0.197-2.749-1.658-2.553-3.263l0.211-1.73
		c0.197-1.606,1.658-2.751,3.265-2.554l1.73,0.212c1.608,0.195,2.751,1.657,2.554,3.264L89.799,97.067z"/>
</g>
<ellipse fill="#4A4A4A" stroke="#4A4A4A" stroke-width="1.4279" stroke-miterlimit="10" cx="57.038" cy="116.664" rx="1.859" ry="2.324"/>
<ellipse fill="#4A4A4A" stroke="#4A4A4A" stroke-width="1.4279" stroke-miterlimit="10" cx="81.391" cy="116.664" rx="1.859" ry="2.324"/>
<ellipse fill="#4A4A4A" stroke="#4A4A4A" stroke-width="1.1807" stroke-miterlimit="10" cx="65.315" cy="140.461" rx="1.286" ry="2.857"/>
<ellipse fill="#4A4A4A" stroke="#4A4A4A" stroke-width="1.1807" stroke-miterlimit="10" cx="73.387" cy="140.461" rx="1.286" ry="2.857"/>
<path fill="#4A4A4A" d="M106.237,109.676c-0.671-2.044-3.422-2.057-5.163-2.335c-2.815-0.446-5.709-0.247-8.549-0.334
	c-4.786-0.143-9.576,0.277-14.228,1.446c-2.798,0.706-6.046,1.425-8.935,1.334c-1.733-0.052-3.374-0.455-4.929-0.819
	c-8.09-1.884-16.333-2.876-24.622-1.901c-1.511,0.178-6.661-0.078-7.098,2.023c-0.476,2.278,1.122,3.326,2.083,5.033
	c0.498,0.884,0.775,1.845,0.958,2.837c0.377,2.083,0.281,4.236,0.857,6.289c0.832,2.971,3.175,5.951,6.111,7.051
	c2.07,0.78,4.596,0.922,6.791,0.862c13.128-0.342,16.54-10.849,17.259-14.847c0.385-2.144,1.49-2.364,2.724-2.395
	c2.187-0.061,2.438,1.538,2.82,2.508c4.5,11.374,7.207,13.964,16.649,14.787c4.223,0.368,8.758-0.113,11.261-3.885
	c1.94-2.932,1.988-5.938,2.664-9.238c0.195-0.931,0.532-1.793,0.996-2.62C104.834,113.761,106.961,111.877,106.237,109.676z
	 M62.978,119.01c-2.01,5.925-5.158,10.23-13.249,10.447c-8.012,0-10.338-1.459-11.404-10.789c0-6.262-0.411-9.927,11.473-9.905
	C57.812,109.534,66.214,109.456,62.978,119.01z M100.876,118.668c-1.065,9.329-3.391,10.789-11.404,10.789
	c-8.09-0.216-11.24-4.517-13.249-10.447c-3.236-9.555,5.167-9.477,13.179-10.243C101.287,108.741,100.876,112.41,100.876,118.668z"
	/>
<g>
	
		<path fill="none" stroke="#4A4A4A" stroke-width="1.7022" stroke-linecap="round" stroke-linejoin="round" stroke-miterlimit="10" d="
		M79.393,155.238c0,0,8.607,2.407,11.223-7.22"/>
	
		<path fill="none" stroke="#4A4A4A" stroke-width="1.7022" stroke-linecap="round" stroke-linejoin="round" stroke-miterlimit="10" d="
		M88.916,145.209c0,0,2.037,5.664,5.353,2.808"/>
</g>
<circle fill="none" stroke="#4A4A4A" stroke-width="3.1916" stroke-miterlimit="10" cx="70" cy="120" r="66.004"/>
</svg>
