<?xml version="1.0" encoding="utf-8"?>
<!-- Generator: Adobe Illustrator 17.0.2, SVG Export Plug-In . SVG Version: 6.00 Build 0)  -->
<!DOCTYPE svg PUBLIC "-//W3C//DTD SVG 1.1//EN" "http://www.w3.org/Graphics/SVG/1.1/DTD/svg11.dtd">
<svg version="1.1" id="Layer_1" xmlns="http://www.w3.org/2000/svg" xmlns:xlink="http://www.w3.org/1999/xlink" x="0px" y="0px"
	 width="201.8px" height="267.9px" viewBox="0 0 201.8 267.9" enable-background="new 0 0 201.8 267.9" xml:space="preserve">
<g>
	<g>
		
			<rect x="-517.325" y="-46.611" transform="matrix(-0.943 -0.3329 0.3329 -0.943 -992.2872 -205.3776)" fill="none" stroke="#333333" stroke-width="2.6" stroke-linecap="round" stroke-linejoin="round" stroke-miterlimit="10" width="7.176" height="57.852"/>
		
			<polygon fill="none" stroke="#333333" stroke-width="2.6" stroke-linecap="round" stroke-linejoin="round" stroke-miterlimit="10" points="
			-526.805,8.559 -520.038,10.948 -526.766,19.227 		"/>
		
			<rect x="-506.792" y="-50.229" transform="matrix(0.943 0.3329 -0.3329 0.943 -44.518 164.8005)" fill="none" stroke="#333333" stroke-width="2.6" stroke-linecap="round" stroke-linejoin="round" stroke-miterlimit="10" width="7.176" height="5.42"/>
	</g>
	<path fill="none" stroke="#333333" stroke-width="3" stroke-linecap="round" stroke-linejoin="round" stroke-miterlimit="10" d="
		M-332.103,9.298c0.421,1.588-0.526,3.217-2.114,3.637l-21.089,5.585c-1.588,0.421-3.217-0.526-3.637-2.114l-12.203-46.078
		c-0.421-1.588,0.526-3.217,2.114-3.637l21.089-5.585c1.588-0.421,3.217,0.526,3.637,2.114L-332.103,9.298z"/>
	<path fill="none" stroke="#333333" stroke-width="2" stroke-linecap="round" stroke-linejoin="round" stroke-miterlimit="10" d="
		M-337.626,1.603c0.319,1.203-0.398,2.436-1.601,2.755l-15.972,4.23c-1.203,0.319-2.436-0.398-2.755-1.601l-9.242-34.897
		c-0.319-1.203,0.398-2.436,1.601-2.755l15.972-4.23c1.203-0.319,2.436,0.398,2.755,1.601L-337.626,1.603z"/>
	
		<circle fill="none" stroke="#333333" stroke-linecap="round" stroke-linejoin="round" stroke-miterlimit="10" cx="-346.009" cy="11.017" r="2.988"/>
	<g>
		<path fill="#333333" stroke="#333333" stroke-miterlimit="10" d="M-390.986-69.385l-50.836-37.571
			c-1.307-0.966-3.147-0.685-4.108,0.616l-22.342,30.231c-0.962,1.302-0.692,3.143,0.616,4.109l50.837,37.572
			c1.301,0.962,3.146,0.685,4.109-0.617l22.343-30.231C-389.408-66.578-389.684-68.423-390.986-69.385z M-414.21-36.153
			c-0.351,0.475-1.022,0.581-1.502,0.227l-50.837-37.572c-0.48-0.354-0.575-1.028-0.224-1.502l22.343-30.231
			c0.35-0.474,1.022-0.579,1.501-0.225l50.837,37.572c0.48,0.355,0.575,1.028,0.225,1.501L-414.21-36.153z"/>
		<path fill="#333333" stroke="#333333" stroke-miterlimit="10" d="M-407.679-22.918l-4.537-3.353
			c0.303-0.184,0.579-0.433,0.805-0.738l29.105-39.381c0.962-1.301,0.685-3.146-0.616-4.108l-60.201-44.492
			c-1.301-0.962-3.148-0.685-4.109,0.616l-29.105,39.38c-0.226,0.305-0.383,0.643-0.468,0.987l-4.538-3.354
			c-0.414-0.306-0.993-0.224-1.303,0.196c-2.242,3.034,0.895,8.885,7.304,13.622l52.695,38.945
			c6.408,4.736,12.922,6.017,15.164,2.983C-407.173-22.034-407.264-22.611-407.679-22.918z M-421.539-26.097l-52.696-38.945
			c-4.952-3.66-7.502-7.862-7.252-10.107l5.768,4.263l22.955,16.964c-0.108,0.711,0.169,1.451,0.793,1.912l11.438,8.454
			c0.623,0.461,1.413,0.508,2.06,0.196l22.955,16.965l5.767,4.262C-411.823-21.233-416.588-22.437-421.539-26.097z M-474.837-73.886
			l29.105-39.38c0.35-0.474,1.022-0.579,1.501-0.225l60.201,44.492c0.48,0.354,0.575,1.028,0.225,1.501l-29.105,39.381
			c-0.351,0.474-1.021,0.578-1.5,0.224l-60.201-44.492C-475.091-72.74-475.187-73.412-474.837-73.886z"/>
	</g>
	<g>
		<path fill="#333333" stroke="#333333" stroke-miterlimit="10" d="M-445.826-80.248c0.169-0.225,0.396-0.321,0.679-0.29
			l11.155,0.869c0.221,0.008,0.402,0.093,0.542,0.255c0.139,0.162,0.198,0.349,0.176,0.559c-0.008,0.222-0.096,0.406-0.263,0.553
			c-0.168,0.147-0.357,0.209-0.567,0.187l-9.975-0.782l3.167,8.925c0.068,0.211,0.06,0.415-0.026,0.612s-0.238,0.327-0.456,0.39
			c-0.264,0.108-0.508,0.078-0.733-0.092c-0.116-0.088-0.206-0.218-0.269-0.39l-3.559-10.057
			C-446.061-79.748-446.018-79.994-445.826-80.248z"/>
		<path fill="#333333" stroke="#333333" stroke-miterlimit="10" d="M-437.695-66.103c0.076-0.199,0.213-0.354,0.411-0.466
			l18.573-8.265c0.196-0.079,0.394-0.078,0.594,0.004c0.2,0.082,0.346,0.227,0.44,0.434c0.09,0.182,0.097,0.372,0.022,0.571
			c-0.076,0.199-0.22,0.349-0.433,0.45l-18.564,8.254c-0.275,0.123-0.532,0.094-0.771-0.087c-0.102-0.077-0.19-0.178-0.266-0.303
			C-437.769-65.707-437.771-65.904-437.695-66.103z"/>
		<path fill="#333333" stroke="#333333" stroke-miterlimit="10" d="M-417.576-67.015c0.196-0.079,0.391-0.074,0.586,0.015
			c0.194,0.09,0.325,0.24,0.394,0.451l3.901,10.486c0.108,0.264,0.078,0.508-0.092,0.733c-0.192,0.254-0.416,0.363-0.674,0.328
			l-10.648-0.658c-0.184-0.013-0.333-0.064-0.449-0.151c-0.225-0.17-0.322-0.396-0.29-0.679c0.001-0.227,0.084-0.409,0.249-0.546
			s0.359-0.201,0.581-0.193l9.452,0.592l-3.493-9.376c-0.08-0.197-0.072-0.395,0.023-0.597
			C-417.941-66.812-417.788-66.947-417.576-67.015z"/>
	</g>
</g>
<g>
	<g>
		<path fill="#4B4A4B" stroke="#4B4A4B" stroke-width="4.7738" stroke-linejoin="round" stroke-miterlimit="10" d="M172.698,236.976
			c0,0-18.823,26.181-33.707,26.181c-7.95,0-17.856-1.111-23.487-20.85l0,0c0,0,20.111,1.679,47.594-14.099L172.698,236.976z"/>
	</g>
	
		<path fill="none" stroke="#4B4A4B" stroke-width="4.7738" stroke-linecap="round" stroke-linejoin="round" stroke-miterlimit="10" d="
		M68.887,228.208c0,0-21.104,13.688-25.839,32.145"/>
	
		<path fill="none" stroke="#4B4A4B" stroke-width="4.7738" stroke-linecap="round" stroke-linejoin="round" stroke-miterlimit="10" d="
		M164.21,228.208c0,0,20.238,13.688,24.972,32.145"/>
</g>
<g>
	<g>
		<path fill="#4B4A4B" stroke="#4B4A4B" stroke-width="4.7738" stroke-linejoin="round" stroke-miterlimit="10" d="M59.533,236.976
			c0,0,18.823,26.181,33.707,26.181c7.95,0,17.856-1.111,23.487-20.85l0,0c0,0-20.111,1.679-47.594-14.099L59.533,236.976z"/>
	</g>
	
		<path fill="none" stroke="#4B4A4B" stroke-width="4.7738" stroke-linecap="round" stroke-linejoin="round" stroke-miterlimit="10" d="
		M163.344,228.208c0,0,21.104,13.688,25.839,32.145"/>
	
		<path fill="none" stroke="#4B4A4B" stroke-width="4.7738" stroke-linecap="round" stroke-linejoin="round" stroke-miterlimit="10" d="
		M68.021,228.208c0,0-20.238,13.688-24.972,32.145"/>
</g>
<path fill="none" stroke="#4B4A4B" stroke-width="4.7738" stroke-linecap="round" stroke-miterlimit="10" d="M79.555,80.879
	c-9.126-22.738-62.839-37.495-50.606-28.735c3.801,2.721,7.678,6.757,9.19,11.244c0.955,2.821,1.188,6.095,1.046,9.045
	c-0.52,10.675-5.392,23.778,5.159,31.364c1.072,0.772,2.237,1.463,3.46,2.048"/>
<path fill="none" stroke="#4B4A4B" stroke-width="4.7738" stroke-linecap="round" stroke-miterlimit="10" d="M182.114,105.199
	c25.252-10.154,11.108-79.493,8.722-62.92c-0.664,4.628-2.462,9.926-5.747,13.336c-2.065,2.146-4.863,3.862-7.546,5.094
	c-9.716,4.455-23.59,6.163-25.464,19.021c-0.218,1.493-0.287,3.047-0.197,4.596"/>
<path fill="none" stroke="#4B4A4B" stroke-width="4.7738" stroke-miterlimit="10" d="M199.866,157.945
	c0,46.592-37.77,84.362-84.362,84.362c-16.363,0-31.637-4.659-44.572-12.723c-23.893-14.896-39.791-41.413-39.791-71.642
	c0-46.592,37.77-84.362,84.362-84.362S199.866,111.352,199.866,157.945z"/>
<ellipse fill="none" stroke="#4B4A4B" stroke-width="4.7738" stroke-miterlimit="10" cx="115.503" cy="180.587" rx="36.097" ry="24.448"/>
<g>
	<g>
		<path fill="#4B4A4B" stroke="#4B4A4B" stroke-width="3.1826" stroke-miterlimit="10" d="M158.756,81.478
			c0.396-2.776,2.886-5.919,5.529-6.98c2.646-1.064,7.679-3.086,11.184-4.491l6.342-2.545c3.504-1.407,5.297,0.341,3.984,3.879
			l-2.543,6.854c-1.314,3.541-2.167,9.519-1.897,13.286l0.525,7.29c0.271,3.767-1.938,4.941-4.911,2.612l-5.376-4.216
			c-2.971-2.329-7.238-5.676-9.48-7.437C159.873,87.963,158.36,84.253,158.756,81.478z"/>
		
			<path fill="#4B4A4B" stroke="#4B4A4B" stroke-width="3.1826" stroke-linecap="round" stroke-linejoin="round" stroke-miterlimit="10" d="
			M158.756,81.478c0.396-2.776,2.886-5.919,5.529-6.98c2.646-1.064,7.679-3.086,11.184-4.491l6.342-2.545
			c3.504-1.407,5.297,0.341,3.984,3.879l-2.543,6.854c-1.314,3.541-2.167,9.519-1.897,13.286l0.525,7.29
			c0.271,3.767-1.938,4.941-4.911,2.612l-5.376-4.216c-2.971-2.329-7.238-5.676-9.48-7.437
			C159.873,87.963,158.36,84.253,158.756,81.478z"/>
	</g>
	<g>
		<path fill="#4B4A4B" stroke="#4B4A4B" stroke-width="3.1826" stroke-miterlimit="10" d="M146.379,81.046
			c-0.396,2.776-2.883,5.92-5.528,6.98c-2.646,1.063-7.678,3.086-11.183,4.491l-6.342,2.546c-3.504,1.407-5.296-0.339-3.984-3.879
			l2.543-6.854c1.314-3.541,2.166-9.519,1.895-13.286l-0.525-7.29c-0.271-3.767,1.938-4.941,4.911-2.612l5.376,4.217
			c2.971,2.329,7.238,5.676,9.479,7.437S146.775,78.27,146.379,81.046z"/>
		
			<path fill="#4B4A4B" stroke="#4B4A4B" stroke-width="3.1826" stroke-linecap="round" stroke-linejoin="round" stroke-miterlimit="10" d="
			M146.379,81.046c-0.396,2.776-2.883,5.92-5.528,6.98c-2.646,1.063-7.678,3.086-11.183,4.491l-6.342,2.546
			c-3.504,1.407-5.296-0.339-3.984-3.879l2.543-6.854c1.314-3.541,2.166-9.519,1.895-13.286l-0.525-7.29
			c-0.271-3.767,1.938-4.941,4.911-2.612l5.376,4.217c2.971,2.329,7.238,5.676,9.479,7.437S146.775,78.27,146.379,81.046z"/>
	</g>
	
		<path fill="#4B4A4B" stroke="#4B4A4B" stroke-width="3.1826" stroke-linecap="round" stroke-linejoin="round" stroke-miterlimit="10" d="
		M160.635,83.834c-0.436,3.58-3.693,6.126-7.275,5.688l-3.855-0.471c-3.58-0.438-6.126-3.696-5.691-7.274l0.47-3.857
		c0.439-3.58,3.695-6.132,7.276-5.692l3.857,0.472c3.583,0.436,6.132,3.693,5.692,7.275L160.635,83.834z"/>
</g>
<ellipse fill="#4B4A4B" stroke="#4B4A4B" stroke-width="3.1826" stroke-miterlimit="10" cx="87.615" cy="127.514" rx="4.143" ry="5.179"/>
<ellipse fill="#4B4A4B" stroke="#4B4A4B" stroke-width="3.1826" stroke-miterlimit="10" cx="140.709" cy="127.514" rx="4.143" ry="5.179"/>
<ellipse fill="#4B4A4B" stroke="#4B4A4B" stroke-width="2.6316" stroke-miterlimit="10" cx="106.065" cy="180.554" rx="2.866" ry="6.367"/>
<g>
	
		<path fill="none" stroke="#4B4A4B" stroke-width="3.1826" stroke-linecap="round" stroke-linejoin="round" stroke-miterlimit="10" d="
		M138.574,210.935c0,0,18.011,5.037,23.486-15.109"/>
	
		<path fill="none" stroke="#4B4A4B" stroke-width="3.1826" stroke-linecap="round" stroke-linejoin="round" stroke-miterlimit="10" d="
		M158.502,189.949c0,0,4.263,11.853,11.202,5.876"/>
</g>
<ellipse fill="#4B4A4B" stroke="#4B4A4B" stroke-width="2.6316" stroke-miterlimit="10" cx="124.055" cy="180.554" rx="2.866" ry="6.367"/>
<path fill="#4B4A4B" d="M197.275,111.939c-1.496-4.555-7.626-4.586-11.507-5.204c-6.274-0.995-12.724-0.55-19.056-0.743
	c-10.667-0.318-21.344,0.617-31.712,3.224c-6.236,1.574-13.477,3.176-19.915,2.972c-3.862-0.116-7.52-1.013-10.986-1.825
	c-18.032-4.199-36.403-6.409-54.88-4.237c-3.368,0.396-14.846-0.174-15.821,4.508c-1.062,5.078,2.5,7.413,4.644,11.217
	c1.111,1.97,1.728,4.112,2.134,6.324c0.841,4.644,0.626,9.441,1.911,14.017c1.854,6.622,7.076,13.263,13.621,15.715
	c4.615,1.738,10.244,2.055,15.136,1.921c29.26-0.762,36.866-24.182,38.469-33.091c0.859-4.779,3.321-5.27,6.072-5.338
	c4.875-0.136,5.434,3.428,6.284,5.59c10.029,25.35,16.063,31.123,37.109,32.957c9.412,0.821,19.52-0.251,25.099-8.659
	c4.325-6.536,4.432-13.234,5.937-20.591c0.434-2.075,1.187-3.997,2.22-5.84C194.147,121.043,198.887,116.844,197.275,111.939z
	 M100.856,132.742c-4.479,13.205-11.496,22.802-29.531,23.285c-17.858,0-23.043-3.253-25.418-24.048
	c0-13.958-0.917-22.127,25.572-22.077C89.34,111.622,108.068,111.448,100.856,132.742z M185.324,131.98
	c-2.374,20.792-7.558,24.048-25.418,24.048c-18.032-0.482-25.052-10.067-29.531-23.285c-7.212-21.296,11.516-21.123,29.374-22.829
	C186.242,109.854,185.324,118.031,185.324,131.98z"/>
</svg>
